<?xml version="1.0" encoding="utf-8"?>
<!-- Generator: Adobe Illustrator 27.0.0, SVG Export Plug-In . SVG Version: 6.00 Build 0)  -->
<svg version="1.1" id="Layer_2_00000065062467227293910890000001007744225391614369_"
	 xmlns="http://www.w3.org/2000/svg" xmlns:xlink="http://www.w3.org/1999/xlink" x="0px" y="0px" viewBox="0 0 3812.3 3812.3"
	 style="enable-background:new 0 0 3812.3 3812.3;" xml:space="preserve">
<style type="text/css">
	.st0{fill:none;stroke:#FFFFFF;stroke-width:7.6;stroke-miterlimit:10;}
	.st1{fill:none;stroke:#FFFFFF;stroke-width:2.53;stroke-miterlimit:10;}
	.st2{fill:#FFFFFF;}
	.st3{font-family:'IBMPlexSerif-Regular';}
	.st4{font-size:50.69px;}
	.st5{font-size:38.02px;}
	.st6{fill:none;stroke:#FFFFFF;stroke-width:5.07;stroke-miterlimit:10;}
	.st7{opacity:0.2;}
	.st8{fill:none;}
</style>
<g id="_Текст_сверху">
	<g>
		<line class="st0" x1="1906" y1="179.4" x2="1906" y2="214.3"/>
		<line class="st1" x1="1875.8" y1="179.7" x2="1876.4" y2="214.6"/>
		<line class="st1" x1="1845.7" y1="180.4" x2="1846.9" y2="215.4"/>
		<line class="st1" x1="1815.5" y1="181.8" x2="1817.4" y2="216.6"/>
		<line class="st1" x1="1785.4" y1="183.6" x2="1787.9" y2="218.4"/>
		<line class="st0" x1="1755.4" y1="186" x2="1758.4" y2="220.8"/>
		<line class="st1" x1="1725.3" y1="188.9" x2="1729" y2="223.6"/>
		<line class="st1" x1="1695.4" y1="192.3" x2="1699.6" y2="226.9"/>
		<line class="st1" x1="1665.5" y1="196.2" x2="1670.3" y2="230.8"/>
		<line class="st1" x1="1635.6" y1="200.7" x2="1641.1" y2="235.2"/>
		<line class="st0" x1="1605.9" y1="205.7" x2="1611.9" y2="240.1"/>
		<line class="st1" x1="1576.2" y1="211.1" x2="1582.9" y2="245.4"/>
		<line class="st1" x1="1546.7" y1="217.2" x2="1553.9" y2="251.3"/>
		<line class="st1" x1="1517.2" y1="223.7" x2="1525.1" y2="257.7"/>
		<line class="st1" x1="1487.9" y1="230.7" x2="1496.3" y2="264.6"/>
		<line class="st0" x1="1458.7" y1="238.3" x2="1467.7" y2="272"/>
		<line class="st1" x1="1429.6" y1="246.4" x2="1439.2" y2="279.9"/>
		<line class="st1" x1="1400.7" y1="254.9" x2="1410.9" y2="288.3"/>
		<line class="st1" x1="1371.9" y1="264" x2="1382.7" y2="297.2"/>
		<line class="st1" x1="1343.3" y1="273.6" x2="1354.7" y2="306.6"/>
		<line class="st0" x1="1314.9" y1="283.6" x2="1326.8" y2="316.5"/>
		<line class="st1" x1="1286.6" y1="294.2" x2="1299.1" y2="326.8"/>
		<line class="st1" x1="1258.5" y1="305.2" x2="1271.6" y2="337.6"/>
		<line class="st1" x1="1230.7" y1="316.8" x2="1244.3" y2="349"/>
		<line class="st1" x1="1203" y1="328.8" x2="1217.2" y2="360.7"/>
		<line class="st0" x1="1175.6" y1="341.3" x2="1190.3" y2="373"/>
		<line class="st1" x1="1148.3" y1="354.3" x2="1163.6" y2="385.7"/>
		<line class="st1" x1="1121.3" y1="367.8" x2="1137.2" y2="398.9"/>
		<line class="st1" x1="1094.6" y1="381.7" x2="1111" y2="412.5"/>
		<line class="st1" x1="1068.1" y1="396.1" x2="1085" y2="426.6"/>
		<line class="st1" x1="2743.9" y1="396.1" x2="2727" y2="426.6"/>
		<line class="st1" x1="2717.4" y1="381.7" x2="2701" y2="412.5"/>
		<line class="st1" x1="2690.7" y1="367.8" x2="2674.8" y2="398.9"/>
		<line class="st1" x1="2663.7" y1="354.3" x2="2648.4" y2="385.7"/>
		<line class="st0" x1="2636.4" y1="341.3" x2="2621.7" y2="373"/>
		<line class="st1" x1="2609" y1="328.8" x2="2594.8" y2="360.7"/>
		<line class="st1" x1="2581.3" y1="316.8" x2="2567.7" y2="349"/>
		<line class="st1" x1="2553.5" y1="305.2" x2="2540.4" y2="337.6"/>
		<line class="st1" x1="2525.4" y1="294.2" x2="2512.9" y2="326.8"/>
		<line class="st0" x1="2497.1" y1="283.6" x2="2485.2" y2="316.5"/>
		<line class="st1" x1="2468.7" y1="273.6" x2="2457.3" y2="306.6"/>
		<line class="st1" x1="2440.1" y1="264" x2="2429.3" y2="297.2"/>
		<line class="st1" x1="2411.3" y1="254.9" x2="2401.1" y2="288.3"/>
		<line class="st1" x1="2382.4" y1="246.4" x2="2372.8" y2="279.9"/>
		<line class="st0" x1="2353.3" y1="238.3" x2="2344.3" y2="272"/>
		<line class="st1" x1="2324.1" y1="230.7" x2="2315.7" y2="264.6"/>
		<line class="st1" x1="2294.8" y1="223.7" x2="2286.9" y2="257.7"/>
		<line class="st1" x1="2265.4" y1="217.2" x2="2258.1" y2="251.3"/>
		<line class="st1" x1="2235.8" y1="211.1" x2="2229.1" y2="245.4"/>
		<line class="st0" x1="2206.1" y1="205.7" x2="2200.1" y2="240.1"/>
		<line class="st1" x1="2176.4" y1="200.7" x2="2170.9" y2="235.2"/>
		<line class="st1" x1="2146.5" y1="196.2" x2="2141.7" y2="230.8"/>
		<line class="st1" x1="2116.6" y1="192.3" x2="2112.4" y2="226.9"/>
		<line class="st1" x1="2086.7" y1="188.9" x2="2083" y2="223.6"/>
		<line class="st0" x1="2056.6" y1="186" x2="2053.6" y2="220.8"/>
		<line class="st1" x1="2026.6" y1="183.6" x2="2024.1" y2="218.4"/>
		<line class="st1" x1="1996.5" y1="181.8" x2="1994.6" y2="216.6"/>
		<line class="st1" x1="1966.3" y1="180.4" x2="1965.1" y2="215.4"/>
		<line class="st1" x1="1936.2" y1="179.7" x2="1935.6" y2="214.6"/>
		<path class="st0" d="M2769.7,410.4l-17.5,30.2c-192.5-111.3-409-185.8-639.8-213.8c-67.7-8.2-136.6-12.5-206.5-12.5
			s-138.8,4.2-206.5,12.5c-230.8,28.1-447.2,102.5-639.8,213.8l-17.5-30.2c141.9-82,296.5-144.4,460.1-183.6
			c129.5-31,264.6-47.4,403.6-47.4s274.1,16.4,403.6,47.4C2473.2,265.9,2627.8,328.3,2769.7,410.4z"/>
		<polygon class="st2" points="1906,236.8 1915.6,210.6 1896.4,210.6 		"/>
		<polygon class="st2" points="1760.4,241.3 1766,220.3 1750.8,221.8 		"/>
		<polygon class="st2" points="1615.7,259.7 1619.4,238.3 1604.5,241.1 		"/>
		<polygon class="st2" points="1473.2,291.5 1475,269.8 1460.4,273.9 		"/>
		<polygon class="st2" points="1333.7,335 1333.7,313.2 1319.4,318.5 		"/>
		<polygon class="st2" points="1198.8,391.1 1196.8,369.4 1183.1,376 		"/>
		<polygon class="st2" points="2051.6,241.3 2046,220.3 2061.1,221.8 		"/>
		<polygon class="st2" points="2196.4,259.7 2192.6,238.3 2207.5,241.1 		"/>
		<polygon class="st2" points="2338.8,291.5 2337,269.8 2351.6,273.9 		"/>
		<polygon class="st2" points="2478.3,335 2478.3,313.2 2492.6,318.5 		"/>
		<polygon class="st2" points="2457.3,396.1 2456.7,417.9 2442.6,412.1 		"/>
		<polygon class="st2" points="2184.5,323.1 2188.5,344.5 2173.5,341.9 		"/>
		<polygon class="st2" points="1905.3,299 1912.8,319.5 1897.6,319.4 		"/>
		<polygon class="st2" points="1627.5,324.3 1638.3,343.2 1623.4,345.7 		"/>
		<polygon class="st2" points="1358.8,397 1373.4,413.2 1359.3,418.8 		"/>
		<polygon class="st2" points="2613.2,391.1 2615.1,369.4 2628.9,376 		"/>
		<text transform="matrix(1 0 0 1 1890.79 286.8201)" class="st2 st3 st4">0</text>
		<text transform="matrix(0.9848 0.1736 -0.1736 0.9848 2157.6799 304.9299)" class="st2 st3 st4">10</text>
		<text transform="matrix(0.9962 8.715574e-02 -8.715574e-02 0.9962 2036.9202 281.4698)" class="st2 st3 st5">5</text>
		<text transform="matrix(0.9659 0.2588 -0.2588 0.9659 2307.2 324.2201)" class="st2 st3 st5">15</text>
		<text transform="matrix(0.9397 0.342 -0.342 0.9397 2434.4097 372.9301)" class="st2 st3 st4">20</text>
		<text transform="matrix(0.866 0.5 -0.5 0.866 2697.3101 481.0399)" class="st2 st3 st4">30</text>
		<text transform="matrix(0.9063 0.4226 -0.4226 0.9063 2578.4099 418.0403)" class="st2 st3 st5">25</text>
		<text transform="matrix(0.9962 -8.715574e-02 8.715574e-02 0.9962 1753.2534 283.6299)" class="st2 st3 st5">5</text>
		<text transform="matrix(0.9848 -0.1736 0.1736 0.9848 1593.744 313.2004)" class="st2 st3 st4">10</text>
		<text transform="matrix(0.9659 -0.2588 0.2588 0.9659 1463.1793 335.0153)" class="st2 st3 st5">15</text>
		<text transform="matrix(0.9397 -0.342 0.342 0.9397 1323.1758 391.1104)" class="st2 st3 st4">20</text>
		<text transform="matrix(0.866 -0.5 0.5 0.866 1063.3077 517.3763)" class="st2 st3 st4">30</text>
		<text transform="matrix(0.9063 -0.4226 0.4226 0.9063 1195.6539 438.7391)" class="st2 st3 st5">25</text>
		<path class="st6" d="M2700,531.1l-4.9,8.5c-231.2-133-499.4-209.1-785.3-209.1s-558.4,77.3-790.9,212.4c-0.1,0-0.1,0.1-0.2,0.1
			l-4.9-8.5c0.1,0,0.1-0.1,0.2-0.1c234-135.9,505.8-213.7,795.9-213.7S2467.3,397.2,2700,531.1L2700,531.1z"/>
		<g class="st7">
			<path d="M2313.8,411.1c-132.2-36-269.4-54.2-407.8-54.2s-275.6,18.2-407.8,54.2c-128.2,34.9-251.7,86.4-367.1,153.1l7,12.1
				c114.3-66.1,236.7-117.2,363.7-151.8c131.1-35.7,267-53.7,404.1-53.7s273.1,18.1,404.1,53.7c127.1,34.6,249.5,85.6,363.7,151.8
				l7-12.1C2565.6,497.5,2442.1,446,2313.8,411.1L2313.8,411.1z"/>
			<path d="M1137.2,579.7l-9.5-16.5l2.2-1.2c115.5-66.8,239.2-118.4,367.7-153.4c132.4-36,269.9-54.3,408.5-54.3
				s276,18.3,408.5,54.3l0,0c128.4,34.9,252.1,86.5,367.7,153.4l2.2,1.2l-9.5,16.5l-2.2-1.2c-114.1-66-236.3-117-363.1-151.5
				c-130.8-35.6-266.6-53.6-403.5-53.6s-272.7,18-403.5,53.6c-126.8,34.5-249,85.5-363.1,151.5L1137.2,579.7L1137.2,579.7z
				 M1906,368.3c137.3,0,273.5,18.1,404.8,53.8c126.5,34.4,248.3,85.1,362.2,150.8l4.5-7.8c-114.5-66-237.1-117-364.3-151.6l0,0
				c-132-35.9-269-54.1-407.2-54.1s-275.2,18.2-407.2,54.1c-127.2,34.6-249.8,85.6-364.3,151.6l4.5,7.8
				c113.9-65.6,235.7-116.4,362.2-150.8C1632.5,386.4,1768.7,368.3,1906,368.3L1906,368.3z"/>
		</g>
		<rect class="st8" width="3812.3" height="3812.3"/>
	</g>
</g>
<polygon class="st2" points="1905.2,131.8 1867.5,180.4 1943,180.4 "/>
</svg>
