<?xml version="1.0" encoding="UTF-8"?>
<svg id="Layer_2" data-name="Layer 2" xmlns="http://www.w3.org/2000/svg" viewBox="0 0 3812.33 3812.33">
  <defs>
    <style>
      .cls-1, .cls-2, .cls-3, .cls-4, .cls-5 {
        fill: none;
      }

      .cls-1, .cls-6, .cls-7 {
        stroke-width: 0px;
      }

      .cls-2 {
        stroke: #ff3200;
      }

      .cls-2, .cls-3 {
        stroke-width: 7.6px;
      }

      .cls-2, .cls-3, .cls-4, .cls-5 {
        stroke-miterlimit: 10;
      }

      .cls-3, .cls-4, .cls-5 {
        stroke: #fff;
      }

      .cls-8 {
        font-size: 50.69px;
      }

      .cls-8, .cls-9, .cls-7, .cls-10 {
        fill: #fff;
      }

      .cls-8, .cls-10 {
        font-family: IBMPlexSerif-Regular, 'IBM Plex Serif';
      }

      .cls-4 {
        stroke-width: 5.07px;
      }

      .cls-5 {
        stroke-width: 2.53px;
      }

      .cls-11 {
        opacity: .2;
      }

      .cls-9 {
        font-family: IBMPlexSerif-Bold, 'IBM Plex Serif';
        font-size: 74.94px;
        font-weight: 700;
      }

      .cls-10 {
        font-size: 38.02px;
      }
    </style>
  </defs>
  <g id="_Текст_сверху" data-name="Текст сверху">
    <g>
      <line class="cls-2" x1="1906" y1="179.4" x2="1906" y2="214.33"/>
      <line class="cls-5" x1="1875.84" y1="179.66" x2="1876.45" y2="214.58"/>
      <line class="cls-5" x1="1845.68" y1="180.45" x2="1846.9" y2="215.36"/>
      <line class="cls-5" x1="1815.54" y1="181.77" x2="1817.37" y2="216.65"/>
      <line class="cls-5" x1="1785.43" y1="183.61" x2="1787.87" y2="218.45"/>
      <line class="cls-3" x1="1755.36" y1="185.98" x2="1758.41" y2="220.77"/>
      <line class="cls-5" x1="1725.34" y1="188.87" x2="1728.99" y2="223.6"/>
      <line class="cls-5" x1="1695.36" y1="192.28" x2="1699.62" y2="226.95"/>
      <line class="cls-5" x1="1665.46" y1="196.22" x2="1670.32" y2="230.81"/>
      <line class="cls-5" x1="1635.62" y1="200.68" x2="1641.09" y2="235.18"/>
      <line class="cls-3" x1="1605.87" y1="205.66" x2="1611.94" y2="240.05"/>
      <line class="cls-5" x1="1576.21" y1="211.15" x2="1582.88" y2="245.44"/>
      <line class="cls-5" x1="1546.65" y1="217.17" x2="1553.91" y2="251.33"/>
      <line class="cls-5" x1="1517.2" y1="223.7" x2="1525.06" y2="257.73"/>
      <line class="cls-5" x1="1487.87" y1="230.74" x2="1496.32" y2="264.63"/>
      <line class="cls-3" x1="1458.66" y1="238.29" x2="1467.7" y2="272.03"/>
      <line class="cls-5" x1="1429.6" y1="246.35" x2="1439.22" y2="279.93"/>
      <line class="cls-5" x1="1400.67" y1="254.92" x2="1410.88" y2="288.32"/>
      <line class="cls-5" x1="1371.9" y1="263.99" x2="1382.7" y2="297.21"/>
      <line class="cls-5" x1="1343.3" y1="273.56" x2="1354.67" y2="306.59"/>
      <line class="cls-3" x1="1314.86" y1="283.63" x2="1326.81" y2="316.45"/>
      <line class="cls-5" x1="1286.61" y1="294.2" x2="1299.12" y2="326.8"/>
      <line class="cls-5" x1="1258.54" y1="305.25" x2="1271.62" y2="337.64"/>
      <line class="cls-5" x1="1230.67" y1="316.8" x2="1244.32" y2="348.95"/>
      <line class="cls-5" x1="1203.01" y1="328.82" x2="1217.21" y2="360.73"/>
      <line class="cls-3" x1="1175.56" y1="341.33" x2="1190.32" y2="372.99"/>
      <line class="cls-5" x1="1148.33" y1="354.32" x2="1163.64" y2="385.71"/>
      <line class="cls-5" x1="1121.33" y1="367.78" x2="1137.19" y2="398.9"/>
      <line class="cls-5" x1="1094.58" y1="381.71" x2="1110.98" y2="412.55"/>
      <line class="cls-5" x1="1068.07" y1="396.1" x2="1085" y2="426.65"/>
      <line class="cls-5" x1="2743.93" y1="396.1" x2="2727" y2="426.65"/>
      <line class="cls-5" x1="2717.42" y1="381.71" x2="2701.02" y2="412.55"/>
      <line class="cls-5" x1="2690.67" y1="367.78" x2="2674.81" y2="398.9"/>
      <line class="cls-5" x1="2663.67" y1="354.32" x2="2648.36" y2="385.71"/>
      <line class="cls-3" x1="2636.44" y1="341.33" x2="2621.68" y2="372.99"/>
      <line class="cls-5" x1="2608.99" y1="328.82" x2="2594.79" y2="360.73"/>
      <line class="cls-5" x1="2581.33" y1="316.8" x2="2567.68" y2="348.95"/>
      <line class="cls-5" x1="2553.46" y1="305.25" x2="2540.38" y2="337.64"/>
      <line class="cls-5" x1="2525.39" y1="294.2" x2="2512.88" y2="326.8"/>
      <line class="cls-3" x1="2497.14" y1="283.63" x2="2485.19" y2="316.45"/>
      <line class="cls-5" x1="2468.7" y1="273.56" x2="2457.33" y2="306.59"/>
      <line class="cls-5" x1="2440.1" y1="263.99" x2="2429.3" y2="297.21"/>
      <line class="cls-5" x1="2411.33" y1="254.92" x2="2401.12" y2="288.32"/>
      <line class="cls-5" x1="2382.4" y1="246.35" x2="2372.78" y2="279.93"/>
      <line class="cls-3" x1="2353.34" y1="238.29" x2="2344.3" y2="272.03"/>
      <line class="cls-5" x1="2324.13" y1="230.74" x2="2315.68" y2="264.63"/>
      <line class="cls-5" x1="2294.8" y1="223.7" x2="2286.94" y2="257.73"/>
      <line class="cls-5" x1="2265.35" y1="217.17" x2="2258.09" y2="251.33"/>
      <line class="cls-5" x1="2235.79" y1="211.15" x2="2229.12" y2="245.44"/>
      <line class="cls-3" x1="2206.13" y1="205.66" x2="2200.06" y2="240.05"/>
      <line class="cls-5" x1="2176.38" y1="200.68" x2="2170.91" y2="235.18"/>
      <line class="cls-5" x1="2146.54" y1="196.22" x2="2141.68" y2="230.81"/>
      <line class="cls-5" x1="2116.64" y1="192.28" x2="2112.38" y2="226.95"/>
      <line class="cls-5" x1="2086.66" y1="188.87" x2="2083.01" y2="223.6"/>
      <line class="cls-3" x1="2056.64" y1="185.98" x2="2053.59" y2="220.77"/>
      <line class="cls-5" x1="2026.57" y1="183.61" x2="2024.13" y2="218.45"/>
      <line class="cls-5" x1="1996.46" y1="181.77" x2="1994.63" y2="216.65"/>
      <line class="cls-5" x1="1966.32" y1="180.45" x2="1965.1" y2="215.36"/>
      <line class="cls-5" x1="1936.16" y1="179.66" x2="1935.55" y2="214.58"/>
      <path class="cls-3" d="m2769.71,410.35l-17.47,30.25c-192.51-111.28-408.98-185.76-639.76-213.82-67.67-8.22-136.58-12.46-206.48-12.46s-138.81,4.24-206.48,12.46c-230.78,28.06-447.24,102.53-639.76,213.82l-17.47-30.25c141.87-82.01,296.47-144.43,460.12-183.57,129.48-30.98,264.62-47.38,403.59-47.38s274.11,16.4,403.59,47.38c163.65,39.14,318.25,101.56,460.12,183.57Z"/>
      <polygon class="cls-7" points="1906 236.76 1915.62 210.62 1896.38 210.62 1906 236.76"/>
      <polygon class="cls-7" points="1760.43 241.34 1765.97 220.28 1750.85 221.78 1760.43 241.34"/>
      <polygon class="cls-7" points="1615.65 259.74 1619.41 238.29 1604.47 241.06 1615.65 259.74"/>
      <polygon class="cls-7" points="1473.22 291.45 1475.02 269.75 1460.39 273.86 1473.22 291.45"/>
      <polygon class="cls-7" points="1333.68 334.98 1333.68 313.2 1319.44 318.51 1333.68 334.98"/>
      <polygon class="cls-7" points="1198.8 391.11 1196.85 369.43 1183.14 375.98 1198.8 391.11"/>
      <polygon class="cls-7" points="2051.57 241.34 2046.03 220.28 2061.15 221.78 2051.57 241.34"/>
      <polygon class="cls-7" points="2196.35 259.74 2192.59 238.29 2207.53 241.06 2196.35 259.74"/>
      <polygon class="cls-7" points="2338.78 291.45 2336.98 269.75 2351.61 273.86 2338.78 291.45"/>
      <polygon class="cls-7" points="2478.32 334.98 2478.32 313.2 2492.56 318.51 2478.32 334.98"/>
      <polygon class="cls-7" points="2457.33 396.1 2456.68 417.87 2442.6 412.14 2457.33 396.1"/>
      <polygon class="cls-7" points="2184.53 323.07 2188.47 344.49 2173.51 341.85 2184.53 323.07"/>
      <polygon class="cls-7" points="1905.3 299.02 1912.83 319.46 1897.63 319.4 1905.3 299.02"/>
      <polygon class="cls-7" points="1627.47 324.32 1638.35 343.19 1623.37 345.71 1627.47 324.32"/>
      <polygon class="cls-7" points="1358.85 397.05 1373.45 413.21 1359.33 418.82 1358.85 397.05"/>
      <polygon class="cls-7" points="2613.2 391.11 2615.15 369.43 2628.86 375.98 2613.2 391.11"/>
      <text class="cls-8" transform="translate(1890.79 286.82)"><tspan x="0" y="0">0</tspan></text>
      <text class="cls-9" transform="translate(1876.37 143.02)"><tspan x="0" y="0">N</tspan></text>
      <text class="cls-8" transform="translate(2157.68 304.93) rotate(10)"><tspan x="0" y="0">10</tspan></text>
      <text class="cls-10" transform="translate(2036.92 281.47) rotate(5)"><tspan x="0" y="0">5</tspan></text>
      <text class="cls-10" transform="translate(2307.2 324.22) rotate(15)"><tspan x="0" y="0">15</tspan></text>
      <text class="cls-8" transform="translate(2434.41 372.93) rotate(20)"><tspan x="0" y="0">20</tspan></text>
      <text class="cls-8" transform="translate(2697.31 481.04) rotate(30)"><tspan x="0" y="0">30</tspan></text>
      <text class="cls-10" transform="translate(2578.41 418.04) rotate(25)"><tspan x="0" y="0">25</tspan></text>
      <text class="cls-10" transform="translate(1730.98 285.37) rotate(-5)"><tspan x="0" y="0">355</tspan></text>
      <text class="cls-8" transform="translate(1580.59 320.81) rotate(-10)"><tspan x="0" y="0">350</tspan></text>
      <text class="cls-10" transform="translate(1449.8 340.43) rotate(-15)"><tspan x="0" y="0">345</tspan></text>
      <text class="cls-8" transform="translate(1311.78 401.29) rotate(-20)"><tspan x="0" y="0">340</tspan></text>
      <text class="cls-8" transform="translate(1057.61 526.7) rotate(-30)"><tspan x="0" y="0">330</tspan></text>
      <text class="cls-10" transform="translate(1181.94 446.25) rotate(-25)"><tspan x="0" y="0">335</tspan></text>
      <path class="cls-4" d="m2700,531.09l-4.92,8.52c-231.25-133.02-499.4-209.1-785.32-209.1s-558.44,77.32-790.95,212.36c-.05.03-.11.06-.16.09l-4.94-8.52c.06-.03.11-.07.17-.1,233.97-135.87,505.84-213.67,795.88-213.67s557.56,76.55,790.24,210.42Z"/>
      <g class="cls-11">
        <path class="cls-6" d="m2313.81,411.06c-132.24-35.99-269.45-54.23-407.81-54.23s-275.57,18.24-407.82,54.23c-128.25,34.89-251.74,86.42-367.06,153.13l7,12.13c114.28-66.12,236.65-117.18,363.74-151.75,131.05-35.66,267.02-53.74,404.14-53.74s273.09,18.08,404.14,53.74c127.08,34.57,249.46,85.63,363.73,151.75l7.01-12.12c-115.32-66.72-238.82-118.25-367.07-153.14Z"/>
        <path class="cls-6" d="m1137.21,579.74l-9.5-16.46,2.16-1.25c115.54-66.84,239.24-118.44,367.66-153.38,132.44-36.04,269.88-54.32,408.48-54.32s276.04,18.28,408.47,54.32h0c128.44,34.94,252.14,86.55,367.67,153.39l2.16,1.25-9.51,16.45-2.16-1.25c-114.09-66.02-236.27-116.99-363.13-151.5-130.83-35.6-266.59-53.65-403.48-53.65s-272.65,18.05-403.48,53.65c-126.85,34.5-249.03,85.48-363.14,151.5l-2.17,1.25Zm768.79-211.41c137.34,0,273.54,18.11,404.8,53.83,126.48,34.41,248.31,85.12,362.16,150.75l4.51-7.79c-114.53-66.01-237.09-117.03-364.31-151.64h0c-132.01-35.93-268.99-54.14-407.15-54.14s-275.15,18.22-407.16,54.14c-127.19,34.6-249.75,85.62-364.3,151.63l4.5,7.8c113.87-65.64,235.7-116.35,362.17-150.75,131.26-35.72,267.45-53.83,404.8-53.83Z"/>
      </g>
      <rect class="cls-1" width="3812.33" height="3812.33"/>
    </g>
  </g>
</svg>