<?xml version="1.0" encoding="UTF-8"?>
<svg xmlns="http://www.w3.org/2000/svg" viewBox="0 0 564.39 564.19">
  <defs>
    <style>
      .cls-1 {
        fill: none;
      }

      .cls-1, .cls-2 {
        stroke-width: 0px;
      }

      .cls-3 {
        mix-blend-mode: multiply;
      }

      .cls-4 {
        stroke: #64370e;
        stroke-miterlimit: 10;
      }

      .cls-4, .cls-2 {
        fill: #64370e;
      }

      .cls-5 {
        isolation: isolate;
      }
    </style>
  </defs>
  <g class="cls-5">
    <g id="Layer_1" data-name="Layer 1">
      <g class="cls-3">
        <path class="cls-4" d="m297.08,350.9c-11.71.02-23.4.09-35.09.43-.19,0-.23.3-.03.3,11.67.33,23.33.4,35.01.42.74,0,.86-1.16.11-1.16Z"/>
        <path class="cls-4" d="m320.08,351.68c-1.67-.06-3.36,0-5.03.01-.8,0-1.6-.01-2.4.05-.84.06-1.66.25-2.5.33-.16.01-.14.27.01.27.82.07,1.62.25,2.43.32.82.07,1.64.05,2.46.05,1.64.01,3.29.08,4.93.01.66-.02.81-1.03.1-1.06Z"/>
        <path class="cls-4" d="m237.59,354.72c-3.77,0-7.53,0-11.29.03-1.77.01-3.53.04-5.29.12-.92.03-1.83.07-2.75.11-.94.04-2.44.35-3.26-.19-.57-.38-1.35.03-1.32.72.03.75.83.98,1.39.61.75-.49,2.38-.17,3.24-.13.85.03,1.7.07,2.55.11,1.84.08,3.68.11,5.53.12,3.69.03,7.38.03,11.07.03.99,0,1.15-1.55.15-1.55Z"/>
        <path class="cls-4" d="m266.05,353.44c-3.16-.05-6.33-.03-9.5.03-3.08.06-6.12.28-9.19.47-.11.01-.1.19,0,.2,3.09.19,6.16.41,9.27.47,3.1.06,6.21.08,9.31.03.76-.01.9-1.19.11-1.2Z"/>
        <path class="cls-4" d="m274.37,353.95c-.1,0-.09.17.01.18,7.39.66,14.8.55,22.22.57.84,0,.97-1.31.12-1.31-7.46.02-14.92-.1-22.35.57Z"/>
        <path class="cls-4" d="m205.03,354.6c-7.49-.66-15.09-.4-22.6-.4-.72,0-.84,1.13-.11,1.13,7.55,0,15.19.27,22.72-.4.19-.01.17-.31,0-.33Z"/>
        <path class="cls-4" d="m196.65,351.12c-8.28.04-16.57.17-24.85.27-.13,0-.15.2-.02.2,8.27.1,16.54.22,24.8.27.47,0,.54-.73.07-.73Z"/>
        <path class="cls-4" d="m274.08,357.48c-3.8,0-7.62-.11-11.39.45-.15.02-.13.23.01.25,3.73.55,7.51.44,11.28.44.73,0,.84-1.14.1-1.14Z"/>
        <path class="cls-4" d="m278.07,359.89c-.51,0-1.01.01-1.52.04-.25.01-.49.01-.74.04-.11.01-.22.04-.33.05-.13.01-.27.01-.4.03-.22,0-.2.37.02.38.12,0,.25.01.37.02.12,0,.24.03.37.05.24.02.47.03.71.04.49.03.97.03,1.46.04.19,0,.37-.12.38-.32.02-.17-.12-.39-.31-.38Z"/>
        <path class="cls-4" d="m300.72,356.55c-.93.01-1.87.01-2.8.04-.91.03-1.84.03-2.75.2-.19.03-.16.3.01.33.9.17,1.81.17,2.72.2.91.03,1.83.03,2.73.04.53,0,.6-.83.08-.82Z"/>
        <path class="cls-4" d="m205.91,304.3h0c-.04-.07-.07-.11,0,0Z"/>
        <path class="cls-4" d="m275.11,333.36c6.99.77,14.07.74,21.1.81,3.53.03,7.06.03,10.58.03s7.07-.22,10.62-.33c.8-.02.96-1.24.12-1.27-3.53-.11-7.03-.33-10.56-.33s-7.2,0-10.8.03c-7.03.07-14.09.03-21.08.81-.15.02-.13.25.01.27Z"/>
        <path class="cls-4" d="m324.39,333.42c.29.01.6.01.89.07.26.05.51.11.77.13.54.05,1.07.1,1.6.1,1.09,0,2.19.02,3.29.02.28,0,.54-.17.57-.47.02-.26-.19-.58-.47-.58-1.12,0-2.24.02-3.35.02-.56,0-1.11.06-1.66.11-.26.02-.5.08-.75.13-.29.06-.59.05-.89.07-.22.01-.2.37.02.38Z"/>
        <path class="cls-4" d="m239.42,325.86c.48.04.95.07,1.43.11,1,.07,2,.11,3,.13,2.01.02,4.01.03,6.03.04.75,0,.86-1.17.11-1.17-2.05.01-4.1.02-6.15.04-.97.01-1.93.05-2.9.12-.48.03-.95.07-1.43.11-.56.04-1.1.21-1.64.25-.07,0-.06.11,0,.12.52.03,1.02.2,1.54.24Z"/>
        <path class="cls-4" d="m268.05,324.07c.59-.13,1.12-.36,1.66-.61.53-.25,1.02-.53,1.51-.84.41-.27.84-.63,1.1-1.06.22-.23.46-.45.52-.77.03-.18-.13-.34-.3-.35-.3-.03-.5.16-.78.23-.16.04-.31.06-.47.13-.11.05-.24.11-.34.14-.56.19-1.1.54-1.63.82-.54.28-1.12.5-1.64.81-.25.15-.5.29-.73.48-.1.08-.21.17-.31.25-.05.04-.11.08-.16.13-.06.07-.08.19-.19.22-.04.02-.06.05-.08.08-.72.02-1.44.04-2.16.07-.46.02-.88.06-1.32.21-.16.05-.3.12-.44.19-.09.04-.2.04-.29.07-.13.05-.24.14-.38.15-.04,0-.04.07,0,.08.15.01.25.11.39.15.08.02.19.02.25.05.16.06.33.17.52.23.43.14.84.18,1.29.2.87.04,1.73.07,2.6.09.41,0,.79-.26.83-.68.01-.13-.03-.27-.09-.4.22,0,.44-.01.66-.06Z"/>
        <path class="cls-4" d="m230.55,329.97c3.8.15,7.6.21,11.4.21s7.47-.24,11.19-.42c3.9-.19,7.82-.18,11.72-.22.43,0,.5-.67.06-.68-3.8-.03-7.61-.03-11.41-.2-3.86-.17-7.74-.43-11.59-.43s-7.63.07-11.45.22c-1.91.07-3.82.15-5.73.21-1.59.05-3.69-.23-5.17.46-.08.03-.06.14,0,.17,1.56.73,3.8.42,5.48.48,1.82.06,3.65.13,5.48.2Z"/>
        <path class="cls-4" d="m269.99,328.71c2.39.39,4.85.3,7.27.31,2.43.02,4.87.02,7.3.02.71,0,.82-1.11.1-1.11-2.48,0-4.96,0-7.45.01-2.4.01-4.87-.07-7.25.31-.26.04-.23.41.02.45Z"/>
        <path class="cls-4" d="m238.28,332.05c-1.49,0-2.98.02-4.47.04-.72,0-1.45,0-2.16.04-.34.02-.69.02-1.02.05-.4.04-.74.25-1.16.29-.03,0-.02.05,0,.05.38.03.65.19,1,.27.33.07.69.04,1.03.06.74.04,1.49.04,2.23.05,1.48.02,2.98.03,4.46.04.58,0,.67-.9.09-.9Z"/>
        <path class="cls-4" d="m238.1,335.88c.37,0,.74.01,1.11.02.42,0,.78.16,1.19.2,1.57.13,3.15.17,4.73.19.65,0,.74-1.01.09-1.01-1.58.01-3.17.05-4.76.18-.37.03-.67.18-1.05.2-.43.02-.87.02-1.31.02-.81.01-1.61.03-2.43.05-.06,0-.08.1,0,.1.81.01,1.61.03,2.42.05Z"/>
        <path class="cls-4" d="m264.94,339.66c-1.65-.21-3.4-.05-5.06-.05s-3.38,0-5.07,0c-3.38,0-6.76.02-10.14.03-6.77.03-13.53.22-20.3.38-.18,0-.21.28-.03.28,6.82.17,13.62.35,20.44.38,3.38.01,6.75.03,10.13.03h5.07c1.64,0,3.36.14,4.99-.06.58-.07.51-.92-.04-.99Z"/>
        <path class="cls-4" d="m279.9,339.45c-2.01,0-4.03.05-6.03.11-.99.03-1.98.09-2.96.09-1.02,0-2.05-.09-3.06-.09-.3,0-.34.46-.04.46,1.03,0,2.05-.09,3.08-.09.98,0,1.97.05,2.95.09,2,.06,4.01.11,6.02.11.44,0,.51-.69.06-.69Z"/>
        <path class="cls-4" d="m234.73,314.31s.05-.02.07-.02h0s-.04.01-.06.02Z"/>
        <path class="cls-4" d="m263.34,228.42c-.04,2.97-.42,5.96-1.28,8.8-.41,1.37-.89,2.72-1.52,4.01-.32.65-.65,1.3-1,1.95-.37.69-.56,1.19-.66,1.96-.05.4.46.64.75.39.61-.51.9-.92,1.22-1.67.32-.72.59-1.46.83-2.21.43-1.36.84-2.71,1.15-4.1.66-3,1-6.03.89-9.1-.01-.24-.37-.28-.37-.03Z"/>
        <path class="cls-4" d="m294.46,292.4c.91-1.4,1.28-3.05,1.62-4.66.39-1.87.66-3.77.81-5.68.29-3.63.15-7.31-.28-10.93,0-.05-.08-.03-.08.01.18,3.63-.04,7.24-.56,10.83-.25,1.74-.56,3.48-.94,5.19-.37,1.68-.91,3.36-.94,5.1,0,.19.25.32.37.14Z"/>
        <path class="cls-4" d="m289.33,301.31c.99-1.11,1.55-2.56,2.1-3.92.61-1.49,1.13-3.01,1.54-4.57.77-2.86,1.4-5.93,1.19-8.9-.01-.1-.15-.08-.17,0-.66,2.96-1.08,5.96-1.97,8.87-.43,1.39-.92,2.76-1.46,4.11-.56,1.38-1.33,2.71-1.7,4.17-.08.3.26.48.47.25Z"/>
        <path class="cls-4" d="m285.75,304.76c.24-.56.49-1.11.7-1.68.2-.57.32-1.16.45-1.74.13-.61.18-1.19.22-1.81.04-.57,0-1.13,0-1.7,0-.34-.5-.4-.54-.05-.13,1.15-.41,2.27-.58,3.41-.08.58-.2,1.15-.28,1.73-.07.6-.14,1.19-.25,1.78-.03.16.21.2.27.06Z"/>
        <path class="cls-4" d="m391.57,278.67c-.06.01-.13.03-.19.05-.1-.65-.36-1.24-.73-1.8.04-.15,0-.31-.18-.41-1.13-.63-2.33-.94-3.55-1.34-1.28-.42-2.55-.87-3.82-1.35-2.4-.92-4.77-1.94-7.1-3.05-4.83-2.31-9.47-5.01-13.92-7.98-1.98-1.32-3.92-2.69-5.82-4.1-.05-.06-.12-.11-.17-.17-1.12-1.09-2.19-2.22-3.27-3.35.06-.05.12-.12.14-.21.08-.33.02-.58-.16-.86-.05-.08-.11-.17-.16-.25-.01-.07-.02-.15-.06-.23-.07-.15-.19-.29-.29-.41-.14-.17-.28-.33-.42-.5-.28-.33-.62-.61-.93-.9-.32-.3-.64-.59-.96-.89-.13-.11-.24-.25-.38-.34-.26-.18-.58-.25-.89-.21-.22.03-.4.11-.56.23-.04-.04-.06-.09-.11-.13-.05-.03-.09-.05-.14-.08,0-.01,0-.02-.01-.03-.02-.02-.05-.04-.07-.07-.02-.01-.02-.04-.04-.05-.04-.05-.09-.08-.15-.11-.05-.03-.11-.05-.17-.06-.06-.02-.13-.02-.19-.01-.01,0-.03,0-.04,0h-.14c-.12.03-.23.06-.32.14-.07.03-.13.08-.17.14-.08.08-.14.17-.18.28-.01.05-.02.11-.03.16-3.5-2.99-6.9-6.09-10.19-9.3-2.56-2.49-5.07-5.02-7.59-7.55.43-.53.67-1.3.96-1.9.23-.48-.13-.98-.54-1.18-1.95-.94-3.97-1.75-6.03-2.47-.2-.2-.39-.4-.6-.59-.14-.13-.37.05-.24.2.04.04.08.08.12.13-2.39-.81-4.83-1.48-7.29-2.04-.57-.33-1.15-.64-1.69-.96-.93-.56-1.84-1.15-2.75-1.74-.01-.22-.03-.44-.04-.66-.03-.98-.06-1.97-.08-2.96-.04-1.83-.05-3.66,0-5.49.04-1.69.17-3.39.28-5.09.35.42.87.69,1.34.96.57.31,1.16.59,1.77.81,1.23.42,2.63.6,3.9.24,2.13-.6,3.93-2.55,3.69-4.86-.03-.24-.35-.43-.57-.29-1.02.64-2.06.86-3.26.81-1.12-.04-2.19-.23-3.17-.81-.89-.53-1.75-1.56-2.89-1.45-.19.01-.39.08-.58.17.01-.62.02-1.25.01-1.87,0-.11-.18-.18-.21-.05-.05.21-.09.42-.14.62,0,0,0-.01,0-.02-.07-.29-.26-.6-.57-.68-.31-.08-.55-.11-.87-.06-.41.06-.72.43-.77.83-.39,3.54-.39,7.17-.48,10.72-.04,1.8,0,3.59-.04,5.38,0,.63-.04,1.26-.06,1.9-1.99-1.38-3.95-2.8-5.83-4.34-4.86-3.97-9.3-8.43-13.25-13.3-.02-.02-.05,0-.03.02,3.79,4.98,8.07,9.58,12.79,13.68,2.03,1.76,4.12,3.46,6.3,5.03-.02.71-.03,1.42,0,2.12,0,.02.01.04.01.06-.68-.09-1.35-.19-2.03-.27-.28-.03-.3.36-.04.42,3.92.9,7.85,2.03,11.67,3.29,2.27.75,4.48,1.63,6.67,2.53-.02.05-.02.11-.02.17-.72-.27-1.45-.53-2.17-.78-1.92-.66-3.85-1.3-5.78-1.95-3.83-1.28-7.8-2.72-11.81-3.32-.2-.03-.24.25-.07.32,3.79,1.6,7.83,2.67,11.69,4.12,1.91.72,3.77,1.51,5.64,2.33.2.09.4.18.6.27.05.19.1.39.15.58.14.57.24,1.15.32,1.73.16,1.2.22,2.42.22,3.63,0,.15.2.16.23.02.24-1.21.31-2.4.25-3.64-.03-.6-.09-1.21-.18-1.81,0-.02,0-.04,0-.06.4.18.81.36,1.21.54.14.06.28.13.41.19.01.07.03.15.04.22.15.85.26,1.7.34,2.55.16,1.76.23,3.52.16,5.27-.01.25.35.29.38.04.29-2.48.29-4.94.08-7.43,0-.08-.02-.16-.02-.24.21.07.43.12.65.15.86,4.59,1.41,9.17,1.01,13.87-.21,2.59-.65,5.14-1.34,7.64-.59,2.15-1.48,4.15-2.27,6.21-.13-.04-.27-.07-.4-.11-.18-.05-.36-.1-.55-.15.56-.96.95-2.05,1.34-3.08.46-1.23.83-2.5,1.15-3.78.62-2.5,1.02-5.04,1.03-7.61,0-.07-.09-.08-.1,0-.34,2.54-.79,5.08-1.56,7.52-.37,1.17-.81,2.32-1.28,3.45-.46,1.1-1.08,2.14-1.52,3.25-.58-.16-1.15-.32-1.73-.48-.45-.12-.91-.23-1.35-.35.27-.17.47-.46.66-.71.22-.29.42-.58.6-.88.38-.63.69-1.31.93-2.01.49-1.38.71-2.84.66-4.31,0-.07-.12-.09-.12,0-.06,1.42-.38,2.8-.95,4.1-.28.63-.62,1.23-1.01,1.8-.2.3-.4.59-.62.87-.21.27-.48.5-.62.81-.03.07-.01.15.02.22-1.03-.27-2.07-.52-3.1-.78h0c.29-.72.55-1.44.8-2.16.51-1.46.89-2.97,1.2-4.48.01-.08-.12-.11-.14-.03-.42,1.49-.97,2.9-1.6,4.31-.33.71-.7,1.41-1.09,2.09,0,.02-.02.03-.03.05-.32-.08-.65-.17-.97-.25-4.38-1.06-8.76-2.2-13.18-3.06-.99-.19-1.48,1.31-.67,1.82.26.17.54.31.81.46.11.09.24.16.38.2-.13,0-.26-.02-.38-.04-.76-.21-1.51-.43-2.27-.64-.43-.12-.86-.25-1.29-.37.03,0,.06,0,.09-.02.73-.29,1.19-1.06,1.54-1.71.47-.85.92-1.71,1.36-2.57,1.83-3.57,3.3-7.31,3.62-11.34.28-3.47.18-7.2-.65-10.59-.54-2.2-1.55-4.56-3.32-6.06.65.19,1.31.34,1.99.25.1-.01.18-.08.24-.16.02.06.06.11.11.16.87.82,2.15.54,2.59-.59.17-.44-.09-.9-.5-1.08-7.26-3.16-14.68-6.01-22.01-9.01-1.68-.69-3.36-1.38-5.05-2.07.1-.09.17-.21.17-.36-.02-4.98.28-9.97.44-14.94l.25-7.37c0-.14.01-.28.02-.42.05.06.1.13.15.2.01.01.02.03.03.05.6,3.47,3.55,6.7,6.97,7.37,1.86.36,3.85-.05,5.28-1.33,1.49-1.33,2.11-3.37,1.79-5.32-.1-.63-.92-.95-1.4-.51-2.21,2.05-5.38.67-7.26-1.09-1.17-1.09-3.56-4.32-5.42-3.27-.01-.99-.08-1.97-.29-2.93-.03-.12-.18-.16-.27-.09.29-.51.13-1.26-.65-1.32-.83-.06-1.74.71-1.24,1.61.08.14.31.26.36.36.05.12,0,.5-.02.74-.07.77-.12,1.53-.22,2.3-.38,2.99-.8,5.98-1.08,8.98-.27,2.93-.43,5.87-.62,8.81-.1,1.54-.2,3.08-.27,4.62-.01.28-.07,2.15.74,1.9.04,0,.07-.03.11-.05-.09.31-.16.63-.22.95-4.77-1.95-9.53-3.9-14.3-5.83-2.1-.85-4.2-1.7-6.3-2.54-.98-.4-1.96-.8-2.96-1.18-.68-.25-1.33-.52-2.02-.58-.02-.1-.07-.2-.14-.27-.08-.08-.14-.13-.24-.17h0s-.12-.07-.15-.08c-.08-.03-.16-.04-.25-.03-.1,0-.08,0-.18.03-.03,0-.07.02-.11.03-.06.02-.11.06-.17.09-.05.03-.11.07-.16.11-.06.06-.13.13-.17.21-.07.13-.12.23-.14.39,0,.01,0,.03,0,.05,0,.07,0,.15.01.22.06.25.2.47.41.63.06.05.13.08.21.11.02.01.05.02.08.03.1.03.22.05.32.07.17.01.33-.06.45-.18.49.37,1.06.67,1.66.92-.51-.18-1.03-.33-1.55-.43-.61-.12-.73.68-.37,1,.47.42,1.02.78,1.59,1.11.01.46-.13.76-.06,1.23.02.17.12.36.26.52-.33,1.31-.47,2.68-.72,4.04-.27,1.42-.59,2.83-.95,4.23-1.22,2.75-2.22,5.61-3.38,8.38-1.61,3.86-3.25,7.7-5.02,11.49-.27.57-.55,1.12-.82,1.68-.83,1.41-1.63,2.84-2.4,4.29-.01-.05-.03-.09-.04-.14-.03-.07-.08-.14-.15-.18-.05-.06-.12-.1-.19-.13-.08-.03-.16-.05-.24-.05-.07,0-.14,0-.21,0-.02,0-.03,0-.05,0-.13.02-.18.05-.28.12-.04.02-.08.04-.11.07-.07.06-.13.13-.18.2-.07.1-.11.21-.12.32-.01.12.01.23.06.33,0,.03,0,.07.01.1l.04.13c.03.06.07.12.12.16.03.03.06.06.11.08.06.03.12.05.19.06.04,0,.09,0,.14,0,.04-.01.09-.03.13-.04.06-.03.12-.07.16-.12,0,0,0-.01.01-.02.09-.04.16-.11.23-.19-.01.02-.03.04-.05.05.01-.01.03-.03.05-.04h0c-.22.4-.44.82-.66,1.23-.09,0-.19,0-.29-.01-.28-.03-.35.36-.11.46.04.01.08.04.13.06-.77,1.46-1.55,2.93-2.36,4.36-1.5,2.67-3.04,5.3-4.62,7.91-.07-.19-.12-.39-.19-.58.13-.14.14-.33.02-.5-.37-.54-.82-.71-1.37-.86-.05-4.15-.09-8.29-.12-12.44.2-4.11.44-8.21.59-12.32,1.72.12,3.34,1.11,5.1.99,2.84-.19,3.48-3.4,3.8-5.68.1-.66-.82-.78-1.07-.24-.31.67-1.18.91-1.87.88-1.04-.04-2-.58-3.02-.79-.85-.17-1.72-.17-2.52.22-.12.06-.21.13-.31.2,0-.33.02-.68.02-1.01,0-.22-.16-.33-.32-.33-.01-.03-.02-.05-.04-.08,0-.02-.02-.04-.03-.06-.04-.07-.09-.14-.14-.21-.06-.06-.13-.12-.2-.18-.07-.06-.15-.11-.24-.16-.1-.05-.21-.11-.31-.16-.13-.06-.27-.07-.41-.07-.07,0-.15.01-.22.03-.31.03-.62.22-.72.53h0s-.01.02,0,.01h-.01c-.04.05-.07.09-.09.14-.1.09-.06.24.07.27,0,0,.01.01.01.01.02.11.05.21.12.3.02.03.06.06.08.09.07.12.17.24.28.31.03.02.07.04.1.06.06.04.12.09.18.14-.06-.05-.12-.11-.18-.16.09.08.19.17.29.25-.2.16-.34.38-.35.64-.15,2.61-.01,5.19-.08,7.8-.14-3.01-.17-6.14-.75-9.1-.01-.04-.05-.05-.08-.04,0-.03,0-.07-.01-.11-.02-.11-.17-.09-.19,0-.45,2.46-.32,5.09-.38,7.58-.06,2.53-.11,5.07-.16,7.6-.04,2.46-.09,4.93-.14,7.39-.02,1.27-.04,2.53-.07,3.8-.02.98-.21,2.1.07,3.06-1.53-.39-3.07-.78-4.6-1.18-3.29-.86-6.57-1.75-9.85-2.67-3.27-.92-6.54-1.86-9.8-2.84-1.51-.45-3.03-1.03-4.59-1.31-1.05-.19-1.78.72-1.2,1.7.14.24.47.24.59-.02.19-.42,1.03-.07,1.61.17.01.09.06.17.12.22,0,0,0,0,0,0-.03.12-.06.24-.09.37,0,.03-.01.06-.02.09-.9-.22-1.84-.41-2.69-.27-.08.01-.09.11-.03.16.71.54,1.67.82,2.61,1.06-.01.34,0,.68,0,1.03.03,1.46.04,2.92.06,4.37.03,2.93.05,5.84,0,8.76-.05,2.85-.18,5.7-.36,8.55-.19,2.98-.55,5.97-.51,8.96,0,.23.37.37.44.1.65-2.59.89-5.25,1.12-7.91.25-2.84.44-5.68.58-8.52.14-2.77.23-5.55.25-8.33.01-1.39-.01-2.78-.05-4.17-.02-.83-.03-1.64-.1-2.45.94.3,1.88.57,2.83.84.38,8.3-.05,16.46-1.8,24.6-.03.13.2.19.23.05,1.96-7.89,3.05-16.15,2.82-24.3.03.01.06.02.08.03.62.18,1.25.34,1.87.52.03,1.38.2,2.76.2,4.14,0,1.47-.07,2.93-.16,4.4-.19,2.98-.5,5.96-.91,8.91-.02.15.2.16.23.02.56-2.94.99-5.9,1.28-8.88.14-1.46.26-2.92.36-4.38.09-1.28.29-2.56.34-3.84,1.38.37,2.75.74,4.13,1.11-.17.88-.16,1.82-.22,2.72l-.17,2.69c-.12,1.83-.25,3.65-.24,5.49,0,.1.14.12.16.01.32-1.8.51-3.62.7-5.44.09-.89.19-1.79.29-2.68.09-.85.25-1.73.25-2.58.22.06.43.12.64.17,2.85.76,5.71,1.51,8.57,2.26,1.5.39,2.99.8,4.5,1.17.59.15,1.18.32,1.77.46,0,.41,0,.82,0,1.22,0,1.32.02,2.64.03,3.96-3.75,5.88-7.71,11.65-11.87,17.26-.62.81-1.23,1.61-1.85,2.42-.13.17-.27.34-.4.51-.7.02-1.4.04-2.1.06-.16,0-.31.01-.47.02-.73-.01-1.47-.03-2.21-.04-1.21-.02-2.41-.02-3.61,0-.67,0-1.37-.02-2.07,0-.02-.02-.03-.04-.05-.06-.28-.21-.62-.3-.95-.4-.3-.1-.61-.18-.92-.27-.21-.15-.47-.18-.73-.25-.3-.07-.61-.14-.92-.19-.54-.09-1.14-.26-1.68-.13-.54.12-.98.5-1.13,1.04-.12.48.07,1.26.65,1.27.2.04.41.04.59-.07.17-.11.4-.12.59-.23.09-.05.05-.2-.06-.19-.14.02-.28.01-.41-.01-.02-.06-.05-.11-.1-.17,0,0-.01-.01-.01-.02,0-.02-.01-.06-.01-.08v-.02s0-.01,0-.01h.01s0-.02,0-.02t.03-.01c-.07,0,.15-.02.15-.02-.08.01.13,0,.13,0,.09,0,.18.02.27.03.4.06.79.17,1.2.25.34.06.8.17,1.17.09.13.01.26.02.39.03-1.12.13-2.21.39-3.03.99-.09.07-.04.21.05.25,1.79.91,4.35.39,6.28.29,2.31-.12,4.62-.2,6.94-.3.2,0,.39-.01.59-.02-.06.07-.12.15-.17.22l-.26.27c-.12.12-.18.25-.25.37-1.52,1.92-3.05,3.83-4.59,5.74-.09.11-.18.22-.28.33-2.85,3.32-6.33,6.37-8.77,10-.03,0-.07-.01-.1-.02-.09,0-.55-.1-.17-.01-.23-.05-.44-.1-.67-.06-.29.05-.54.2-.73.41-.35.38-.45.95-.22,1.43.03.06.07.11.1.16-.23,3.12-.12,6.26.05,9.38-.01,0-.03,0-.05.01-.12.02-.23.08-.32.17-.05.06-.1.11-.16.17-.09.14-.15.29-.16.44,0,.08,0,.17,0,.25.03.16.1.31.2.44.12.11.24.23.36.34l.17.17s.04.04.07.06c0,.11.01.23.02.34l.04.78c-.07-.2-.34-.22-.42,0-.25-.05-.51-.04-.72.07-.48.26-.67.72-.6,1.21,0,0-.02,0-.03,0,.04.39.18.76.37,1.1.11.2.24.39.37.58.13.19.32.34.54.44.12.1.25.21.39.29.1.06.21.12.31.17l.1,1.73c.06.99.12,1.98.19,2.98.06,1,.01,1.91.87,2.57.25.2.74.2.97-.04.07-.07.12-.15.18-.22.25.14.52.28.78.38.27.1.54.18.82.23-.1.16-.18.34-.19.54-.03.65.16,1.25.29,1.88.11.54.21,1.08.33,1.61.03.13.06.26.09.38.01.06.11.52.11.49.04.24.09.48.12.73.06.57.14,1.16.35,1.7.18.46.96.56,1.21.1.05-.09.08-.19.13-.29.07.29.16.58.36.86.66.91,1.63,1.61,2.53,2.27.84.61,1.65,1.21,2.23,2.08-.55.17-1.08.45-1.58.72-1.19.66-2.3,1.46-3.29,2.4-.98.93-1.85,1.99-2.55,3.15-.35.59-.68,1.19-.91,1.83-.22.64-.33,1.23-.38,1.89-.99.04-1.99.1-2.98.17-.26.02-.23.43.02.45,5.21.39,10.47.29,15.69.34,5.24.05,10.48.08,15.71.14,10.41.1,20.82.12,31.23.12h62.69c11.76.01,23.52.02,35.28.01,1.07,0,1.23-1.67.16-1.67-8.14,0-16.27,0-24.41,0,.75-.58,1.44-1.28,2.01-1.8,1.2-1.07,2.32-2.21,3.39-3.4,2.26-2.54,4.14-5.36,5.71-8.38,1.03-1.99,1.92-4.1,2.65-6.28.06.04.16.04.2-.05.99-2.27,1.62-4.65,2.76-6.86.52-1.01,1.07-2.02,1.77-2.93.34-.44.73-.85,1.18-1.19.22-.17.45-.29.69-.4.05.04.09.1.14.14.91.76,2.18.8,3.27.42,2.71-.96,4.35-3.63,4.28-6.46-.07-2.86-1.72-5.93-4.87-5.98,3.03-2.08,6.07-4.15,9.12-6.2,6.48-4.35,13.02-8.61,19.59-12.82,1.8-1.15,3.6-2.3,5.41-3.44,1.34-.85,2.81-1.63,3.98-2.72.23-.04.42-.23.48-.49.1-.11.21-.22.31-.34.08-.11-.03-.28-.16-.25Zm-80.68-72.93c.21-.11.45-.16.71-.12.52.08.92.5,1.31.82.8.65,1.71,1.14,2.71,1.39,1.73.44,3.45.11,4.98-.72-.15,1.74-1.82,3.11-3.49,3.39-1.14.19-2.31-.04-3.36-.46-.54-.21-1.05-.48-1.54-.78-.48-.29-.88-.63-1.44-.75,0,0-.02,0-.03,0,.06-.92.11-1.85.15-2.77Zm-33.07-19.61c1.17.15,2.17,1.34,2.87,2.14.97,1.12,1.99,2.21,3.27,2.99,1.86,1.14,4.28,1.54,6.26.64-.15.97-.61,1.89-1.36,2.54-1.16,1.01-2.85,1.13-4.28.74-1.55-.43-2.79-1.43-3.75-2.7-1.03-1.38-1.59-3.02-2.52-4.47-.14-.21-.56-.23-.56.1,0,.16.01.31.02.47-.02-.02-.04-.05-.06-.07.04-.8.08-1.59.1-2.39Zm-50.48,39c.41-.25.93-.37,1.34-.38,1.03-.02,2.02.59,2.97.89.96.31,2.24.43,3.21.01-.15.76-.4,1.52-.79,2.13-.59.93-1.48,1.15-2.51.92-1.41-.31-2.83-1.13-4.27-1.16.02-.81.03-1.62.05-2.42Zm-25.72,23.46c-.25-.05-.5-.11-.75-.16-.15-.16-.37-.2-.6-.13-1.06-.23-2.11-.46-3.18-.66-.1-.01-.2-.04-.29-.06-.03-.2-.07-.4-.12-.6.52.16,1.04.32,1.55.49,1.46.45,2.92.89,4.39,1.33.1.03.21.06.31.09-.44-.1-.88-.2-1.31-.3Zm171.78,22.39c2.68,1.37,5.42,2.61,8.21,3.71,1.37.54,2.75,1.05,4.15,1.52.26.08.51.17.77.26-1.44.05-2.9.24-4.26.42-.68.09-1.35.23-2.03.34.07-.13.1-.28.03-.41.11-.25,0-.59-.33-.59-.16,0-.31.02-.47.03-.53-.28-1.09-.51-1.6-.82-.73-.45-1.45-.91-2.17-1.38-1.34-.86-2.68-1.73-3.99-2.63-2.77-1.9-5.47-3.93-8.07-6.07-.03-.02-.05-.05-.09-.08,3.18,2.07,6.46,3.98,9.84,5.71Zm-25.25-9.09c.12-2.59.43-5.35.14-7.96.06.02.13.05.19.06.04.01.08.02.12.04.03.01.07.01.1.02.53.46,1.07.89,1.6,1.33-.03,2.1.12,4.21.09,6.31-.03,2.64-.16,5.28-.39,7.91-.47,5.35-1.59,10.55-2.47,15.83-.03.17.23.22.29.07,1.74-5.06,2.46-10.52,2.94-15.83.24-2.7.38-5.41.38-8.12,0-1.84.04-3.75-.14-5.61,1.97,1.63,3.97,3.23,6.02,4.76,1.95,1.82,3.97,3.56,5.99,5.22,2.65,2.18,5.39,4.24,8.22,6.18,1.42.97,2.85,1.91,4.32,2.79.68.41,1.37.8,2.07,1.2.16.09.32.2.48.3-1.03.17-2.05.44-3.04.7-1.7.44-3.39.91-5.07,1.42-3.29.98-6.53,2.1-9.75,3.29.07-.31.12-.64.17-.97.12-.76.23-1.51.33-2.28.2-1.49.37-2.99.52-4.49.02-.16-.23-.18-.25-.02-.21,1.47-.44,2.93-.71,4.39-.13.73-.27,1.46-.42,2.19-.09.48-.2.94-.27,1.42-1.37.51-2.74,1.03-4.11,1.57.44-.98.48-2.21.64-3.23.2-1.3.37-2.61.5-3.92.28-2.73.39-5.48.36-8.22,0-.05-.08-.06-.08,0-.13,2.69-.4,5.37-.81,8.03-.21,1.3-.44,2.61-.71,3.9-.25,1.2-.82,2.53-.67,3.76-1.19.47-2.38.94-3.56,1.43.92-1.48,1.2-3.56,1.58-5.22.42-1.82.74-3.67.95-5.53.43-3.76.59-7.74-.08-11.48,0-.03-.05-.03-.05,0,.11,3.78.23,7.48-.29,11.24-.27,1.94-.64,3.86-1.14,5.75-.23.89-.5,1.78-.8,2.65-.28.84-.67,1.65-.78,2.53,0,.11.05.19.13.25-.13.05-.27.1-.39.16-1.5.62-3.02,1.21-4.48,1.92-.52.25-1.05.54-1.54.87,1.83-5.58,2.65-11.55,3.22-17.37.3-3.07.49-6.14.63-9.23Zm-21.16,2.15c-.41-.81-.84-1.72-1.13-2.57-.01-.05-.04-.09-.06-.12.74-1.81,1.25-3.75,1.68-5.59.62-2.65,1-5.35,1.14-8.06.23-4.67-.16-9.55-1.66-14.02.13-.02.22-.09.3-.17.14.15.29.3.43.45-.17.37-.33.66.35.43.01,0,.02-.01.04-.02,5.97,6.23,12.19,12.25,18.63,17.96.16.15.33.29.5.44-.07.08-.08.2-.07.3-.01.02-.02.04-.03.06-.04.11,0,.25.1.32.08.05.18.04.26.01.05.01.11.02.17.02-.01.07-.03.15-.04.23-.09.32-.2.65-.3.97-.03.09.04.14.11.14-.29,2.23-.24,4.55-.35,6.76-.16,3.02-.37,6.02-.67,9.02-.6,5.85-1.71,11.52-3.19,17.19-.07.08-.13.17-.19.26-.08.05-.16.11-.21.2-.11.2-.24.43-.3.66-2.07,2.14-4.04,4.4-6.02,6.64-3.51,3.99-7.01,8.08-9.81,12.62-.22.27-.44.52-.65.79-.07-.07-.13-.15-.21-.21.05.04.1.09.15.14-.06-.06-.12-.12-.19-.19-.01-.01-.02-.02-.04-.03-.03-.03-.06-.06-.09-.09-.02-.02-.05-.03-.08-.05,0-.02-.02-.04-.03-.07-.03-.04-.06-.07-.09-.09,0-.01,0-.02-.01-.03-.01-.1-.1-.18-.19-.22,1.32-1.46,2.08-3.9,2.62-5.37,1.18-3.19,2-6.52,2.49-9.88.95-6.65.57-13.57-1.27-20.04-.51-1.77-1.08-3.54-1.81-5.22-.34-.8-.79-1.57-1.3-2.28-.06-.08-.13-.14-.19-.22.07.02.14.04.21.05.65.16,1.39-.43,1.03-1.13Zm15.51,26.77c-1.91,1.68-3.58,3.64-5.31,5.57-2.13,2.37-4.32,4.71-6.46,7.09,1.08-1.39,2.18-2.76,3.32-4.1,1.43-1.68,2.89-3.32,4.37-4.96.86-.95,1.73-1.89,2.6-2.84.42-.46.85-.91,1.27-1.36,0-.01.03-.03.05-.05,0,.05-.01.1-.01.15-.01.19.05.37.18.5Zm-37.89-28.73c.7.09,1-.67.73-1.18.18-.1.34-.25.46-.45.36-.58.26-1.06-.05-1.4,2.38.55,4.76,1.07,7.12,1.63.19.04.38.08.57.13,0,.02-.01.04-.02.07-.05.35.4.55.64.33.08-.06.13-.14.2-.21,1.67.38,3.34.77,5.02,1.15,1.09.25,2.18.5,3.28.72.26.05.53.12.8.18.01.03.03.06.05.09-2.27-.32-4.54-.62-6.8-1.04-3.23-.6-6.46-1.2-9.69-1.78-.23-.04-.25.3-.03.34,3.16.7,6.32,1.39,9.47,2.08.72.16,1.43.33,2.14.5.1.76.8,1.87.93,2.18.61,1.34,1.17,2.69,1.64,4.09,1.02,3.04,1.78,6.17,2.31,9.34.03.17.28.12.27-.05-.32-3.13-.92-6.21-1.8-9.23-.39-1.35-.82-2.71-1.27-4.03-.23-.66-.47-1.33-.75-1.97.59.15,1.19.3,1.78.46,1.18,2.61,2.31,5.19,3.06,7.96.73,2.71,1.23,5.5,1.5,8.28.01.07.13.07.13,0,0-2.9-.3-5.73-.95-8.55-.58-2.48-1.33-5-2.39-7.34.35.09.71.19,1.07.28.39.64.71,1.44,1.02,2.06.41.83.75,1.71,1.08,2.57.71,1.89,1.29,3.83,1.74,5.8.89,3.84,1.33,7.76,1.26,11.7-.07,3.94-.61,7.87-1.65,11.67-.52,1.9-1.17,3.77-1.91,5.6-.35.85-.7,1.7-1.2,2.46-.34.52-.77.96-1.21,1.4-1.18-.36-2.41-.43-3.66-.53-1.74-.15-3.48-.25-5.22-.29-1.62-.03-3.25-.03-4.87.05-1.74.1-3.41.5-5.11.83-.07.01-.09.09-.07.14-.13.04-.26.1-.35.21-.03.03-.05.07-.08.11-.03-.03-.06-.07-.1-.11-.05-.05-.11-.08-.17-.11-.01-.03-.02-.07-.05-.1-.04-.09-.11-.16-.19-.21-.05-.03-.11-.06-.17-.09-.03-.01-.06-.01-.09-.02.21-.18.29-.44.37-.7.07-.24.14-.48.21-.72.07-.23.1-.47.14-.71.04-.22.12-.43.13-.65.06-.21.13-.42.17-.63.05-.23.09-.48.16-.7.03-.08,0-.15-.04-.19,1.18-2.26,1.51-5.1,1.92-7.54.54-3.13.88-6.31.99-9.48.23-6.38-.48-12.77-2.07-18.96-.5-1.93-1.08-3.85-1.74-5.73.45.09.9.18,1.34.25Zm1.97,48.65c-.31-.07-.69.1-.8.43-.01.06-.04.12-.06.18-.04-.25-.09-.51-.14-.76-.02-.15-.09-.28-.18-.38.16.02.31,0,.45-.07.16-.04.29-.11.4-.23.05-.05.08-.11.12-.17-.03.08,0,.18.1.19,3.33.11,6.66-.14,9.99-.04,1.65.05,3.28.17,4.91.34.5.05.99.1,1.49.15-2.38.58-4.76,1.19-7.1,1.89-1.17.34-2.33.7-3.47,1.14-.35.13-.69.28-1.03.43-1.43-.3-2.98-.21-4.46-.15.04-.18.09-.36.12-.54.07-.56.13-1.11.17-1.67.03-.34-.2-.65-.53-.73Zm-1.54-2.39s-.05-.03-.07-.04c1.43.15,2.86.37,4.3.44,1.19.06,2.38.11,3.56.17-2.14.08-4.28.27-6.34.74-.03,0-.05.02-.07.04.03-.07.06-.15.06-.23.01-.35-.17-.67-.5-.8-.02,0-.03-.01-.05-.02-.08-.04-.16-.07-.25-.09h.01s-.01,0-.01,0c-.02,0-.04-.01-.07-.02-.04,0-.08-.01-.12-.02-.07-.02-.14-.03-.22-.05.07.01.14.03.22.04-.16-.03-.31-.09-.45-.16Zm-8.08-48.12c.24.06.47.13.71.19.13.38.26.77.38,1.15.38,1.24.72,2.49.95,3.76.46,2.53.66,5.11.8,7.67,0,.11.19.1.2,0,.24-2.6.09-5.21-.27-7.79-.18-1.27-.36-2.56-.61-3.82-.04-.2-.09-.41-.14-.61.49.13.98.27,1.47.4.13.32.22.67.3.93.24.74.46,1.48.64,2.23.31,1.31.55,2.65.74,3.98.38,2.76.5,5.56.62,8.34,0,.12.2.1.21,0,.47-3.39.27-6.8-.16-10.18-.21-1.63-.47-3.27-.78-4.88.15.03.3.08.46.11,1.67,6.37,2.63,12.91,2.75,19.52.07,3.93-.13,7.89-.64,11.8-.26,1.95-.59,3.9-1,5.82-.41,1.92-.99,3.73-.87,5.7.02.25.25.34.46.3h0c-.11.16-.19.33-.28.49-.13.23-.29.46-.4.7-.1.22-.21.43-.31.64-.13.29-.26.56-.19.89.01.08.06.13.1.2-.02.01-.04.01-.06.02-.06.03-.1.07-.14.12-.07.06-.12.14-.15.24,0,0,0,.01-.01.02-.02.07-.03.14-.05.21v.02s0,.01,0,.01v.21s0,0,0,0c.01.09.05.18.08.26h0c-1.05-.01-2.12.08-3.18.2.59-.53.79-1.23,1.09-1.99.33-.83.62-1.66.86-2.51.48-1.68.87-3.41,1.22-5.12.75-3.66,1.21-7.38,1.17-11.12,0-.06-.09-.07-.09-.01-.31,3.69-.85,7.38-1.87,10.94-.49,1.71-1.11,3.35-1.79,5-.33.82-.67,1.64-1.01,2.46-.33.8-.65,1.39-.56,2.27,0,.08.04.13.08.18-.54.06-1.08.12-1.62.17-.56.05-1.11.1-1.67.15.26-.58.45-1.2.65-1.75.38-1.1.75-2.21,1.07-3.34.6-2.15,1.03-4.36,1.23-6.6.01-.15-.22-.17-.24-.02-.33,2.21-.84,4.41-1.55,6.53-.33,1-.7,1.99-1.15,2.95-.35.74-.88,1.52-1.18,2.33-1.3.11-2.6.24-3.9.34-4.49.37-8.99.7-13.48.99-9.04.59-18.08.99-27.13,1.27-2.46.07-4.92.13-7.39.21-1.12.03-2.26.03-3.4.06.38-.5.66-1.08.95-1.63.44-.82.86-1.66,1.22-2.52.81-1.89,1.48-3.86,2.09-5.82.57-1.82,1.1-3.64,1.5-5.5.4-1.83.93-3.9.77-5.78-.01-.12-.2-.13-.23-.02-.59,1.87-.71,3.93-1.16,5.85-.43,1.82-.94,3.64-1.61,5.39-.7,1.83-1.56,3.57-2.49,5.29-.48.88-.96,1.75-1.46,2.61-.42.73-.88,1.38-1.07,2.2-.24.01-.47.02-.7.04.07-.07.14-.16.18-.26.09-.23.15-.46.19-.7.01-.09.02-.18.03-.27.01-.13,0-.25-.02-.36.42-.56.54-1.22.71-1.95.26-1.11.51-2.23.76-3.34.5-2.21.99-4.43,1.45-6.65.92-4.39,1.75-8.79,2.4-13.23,1.29-8.74,1.9-17.62,1.01-26.43-.5-4.86-1.66-9.62-3.57-14.12-.04-.1-.2-.04-.18.05,1.73,8.51,2.66,17.19,2.35,25.89-.31,8.78-1.72,17.49-3.47,26.09-.48,2.36-.99,4.71-1.52,7.06-.27,1.22-.55,2.44-.83,3.66-.19.82-.46,1.63-.39,2.44-.02.03-.05.05-.07.09-.01.02-.02.04-.03.06-.14.15-.21.35-.23.57-.01.09-.03.18-.03.27-.02.24-.01.48.01.72.02.2.16.37.34.49-.37.05-.73.11-1.09.18-.75.15-.65,1.15.05,1.28.33.06.67.11,1.01.15h-.01s0,0,0,0h0,0c-.08.02-.14.05-.21.1-.02.02-.04.04-.06.06-.04.04-.08.08-.13.11-.07.06-.14.12-.22.17-.05.03-.11.06-.17.09-.03,0-.07.01-.1.01.01-.06.03-.13.02-.2.1-.04.14-.18.04-.25-.04-.03-.08-.05-.13-.07-.06-.07-.14-.12-.24-.11-.11-.05-.23-.08-.34-.05-.05.01-.1.03-.15.05-.09.04-.17.11-.23.19-.1.11-.17.25-.22.38-.05.14-.09.29-.08.44,0,.16,0,.32.08.47.04.09.1.18.17.25.18.19.4.3.66.34.19.03.39-.05.57-.13.14-.06.27-.14.39-.23.02-.02.04-.04.07-.07-.01.05,0,.11.06.11,2.52.06,5.03.32,7.54.39,2.52.07,5.04.09,7.56,0,3.77-.13,7.53-.3,11.3-.51,0,.02-.01.04-.01.06,0,.05.02.11.02.16-.08.29-.15.57-.23.86l-.15.56c-.03.13-.07.26-.09.39-.01.1-.01.21-.03.3-.05.26.17.58.41.65.27.09.58,0,.74-.23.02-.03.04-.07.06-.11h0s-.01.03,0,0c.02,0,.05.01.07.02.04.02.09.03.13.03.02,0,.03,0,.05,0,0,0,0,0-.01,0,.13.02.27,0,.39-.07.31-.13.54-.42.57-.76,0-.08,0-.16,0-.24,0-.25-.02-.51-.04-.76-.02-.33-.07-.66-.11-.99.56-.03,1.11-.06,1.67-.09.91-.06,1.82-.13,2.73-.2-.17.08-.32.2-.43.37,0,.01,0,.02-.01.03-.3.16-.6.34-.87.54-1.5,1.08-2.76,2.82-4.66,3.18-.28.05-.29.42-.04.53.25.11.5.18.75.21.01.03.02.07.04.11-.07,0-.13,0-.2,0-1.98-.22-3.93-.22-5.95-.2-2.52.02-5.04.04-7.56.08-2.44.03-4.89.07-7.33.15-2.36.08-4.76.2-7.09-.13-.06,0-.11.02-.14.06-.93-.17-2.05-.45-2.75-1.14-.51-.5-.87-1.13-1.16-1.8,0,0,0-.02,0-.03.09-.11.15-.26.11-.39-.02-.11-.06-.22-.1-.31v-.12c0-.27-.02-.51-.16-.74,0-.01-.01-.02-.02-.04,0-.01-.01-.01-.01-.02,0,0,0,0-.01,0-.02-.02-.04-.04-.06-.05,0-.22.03-.45.14-.62.16-.25-.18-.62-.41-.37-.05.05-.09.11-.14.16.12-.42-.07-.95-.54-1.07-.01-.04-.02-.08-.04-.12,0-.03,0-.06-.02-.08.02-.06.03-.14.02-.22-.72-9.91-.97-19.85-1.22-29.78,0-.25,0-.49-.01-.74h.27c.68,0,.79-1.05.1-1.06-.13,0-.27,0-.39,0-.03-1.45-.06-2.9-.09-4.36.89-2.86,1.78-5.72,2.64-8.6.16,2.51.11,5.01-.05,7.5-.06.69-.12,1.38-.15,2.08-.11,1.23-.24,2.47-.37,3.71,0,.11.16.16.19.04.11-.32.2-.65.29-.99.11.06.25.04.3-.12,1.43-3.94,1.86-8.16,2.11-12.33.11-2.02.1-4.03-.1-6.04-.03-.32-.1-.64-.14-.97.37-1.25.74-2.51,1.11-3.77.37-1.29.73-2.6,1.1-3.9,1.2-3.26,2.3-6.54,3.31-9.86.26.11.53.22.8.31.38.13.77.25,1.15.38.03.02.05.05.08.08.04.03.08.05.13.07.02,0,.04,0,.06,0,.04,0,.08,0,.12-.03.7.22,1.4.43,2.1.62.09.02.18.05.28.08.23.77.48,1.52.69,2.28.36,1.35.69,2.71,1,4.07.61,2.72,1.1,5.46,1.4,8.24.6,5.7.34,11.29.12,16.99,0,.1.14.11.16.01,1.18-5.51,1.18-11.39.8-17-.19-2.84-.48-5.7-.94-8.52-.23-1.45-.52-2.87-.85-4.3-.09-.39-.18-.79-.28-1.2,1.25.35,2.51.7,3.76,1.03.73,4.25,1.62,8.47,2.12,12.77.58,5,.77,9.99.44,15.02-.02.34.48.39.53.05.77-4.98,1.03-10.12.6-15.15-.22-2.53-.62-5.04-1.15-7.51-.36-1.72-.88-3.32-1.52-4.9,1.73.46,3.46.91,5.19,1.37.14.54.3,1.07.42,1.62.39,1.64.69,3.31.9,4.98.44,3.44.41,6.94.38,10.4,0,.13.18.15.2.02.51-3.39.46-6.79.24-10.2-.11-1.69-.26-3.37-.48-5.05-.06-.46-.12-.92-.18-1.38,2.09.55,4.18,1.1,6.28,1.66,9.11,2.4,18.22,4.81,27.35,7.16,2.54.65,5.07,1.34,7.61,1.98Zm-61.85,54.09c1.79.18,3.61.1,5.4.1,2.25-.01,4.5-.05,6.74-.1,4.46-.11,8.91-.28,13.35-.51,8.98-.46,17.96-1.17,26.9-2.09,2.44-.25,4.89-.52,7.33-.8,1.79-.21,3.67-.31,5.49-.62-.5.1-1.02.17-1.55.24-2.23.29-4.47.56-6.7.83-4.61.54-9.22,1.02-13.85,1.44-9.31.85-18.64,1.46-27.98,1.86-2.59.11-5.17.27-7.76.47-2.64.21-5.27.56-7.92.67h-.01s.04-.07.06-.11c.13-.12.26-.23.36-.36.08-.11.15-.22.21-.34.02-.04.04-.08.05-.13.04-.1.03-.2.01-.31-.01-.09-.07-.17-.15-.22Zm59.17-1.42c1.39-.17,2.79-.34,4.19-.52,1.11-.14,2.24-.22,3.3-.6.11-.03.22-.08.33-.13-.05.12-.09.26-.12.37-.13.52-.07,1.05.16,1.53.04.08.09.14.15.2-.62,0-1.24,0-1.87.02-3.65.1-7.31.2-10.97.32-3.36.11-6.72.25-10.08.4,4.98-.46,9.95-.99,14.92-1.59Zm-70.05-4.61s-.1.01-.15.02c-.01,0-.01,0-.02,0v-.04c-.04-.95-.04-1.98-.29-2.91-.16-.58-.45-1.08-.99-1.37-.46-.24-.94-.29-1.43-.11-.05.02-.11.04-.16.07-.03.02-.46.27-.21.13-.17.1-.34.21-.51.32-.2.13-.46.29-.63.49-.03-.15-.08-.3-.13-.43l-.04-.09c-.05-.09-.09-.14-.12-.19-.08-.24-.19-.46-.34-.66-.11-.15-.25-.27-.39-.38-.05-.1-.12-.2-.18-.3.26-.29.4-.66.56-1.08.37-.97.7-1.97,1.04-2.96.66-1.9,1.32-3.81,1.96-5.72.93-2.8,1.83-5.6,2.73-8.41.04,2.52.08,5.04.15,7.56.14,5.38.28,10.78.6,16.16-.25-.11-.52-.19-.79-.2-.2,0-.39,0-.58.07h0s-.07,0-.1.01Zm-4.23-2.37s.09,0,.14,0c.25.06.49,0,.76-.06.13-.03.26-.06.38-.09.05-.01.1-.01.15-.03.01,0,0,0,.02,0,0,0,0,0,.03.01.02,0,.06,0,.09.01h0s0,0,0,.03c0,.16.05.34.06.51.03.41.05.83.08,1.24.02.4.03.66.04,1.14,0,.28.04.55.06.83q.01.25.02.49v.02c-.62,0-1.24,0-1.85,0,.02-.14.05-.31.06-.37.01-.28,0-.57,0-.85,0-.95.04-1.94-.05-2.91Zm-3.12,3.07c0,.36-.02.75.07,1.1-.63,0-1.27.02-1.91.04,0-.01,0-.02,0-.03.06-.72-.05-1.49-.11-2.21-.1-1.11-.19-2.22-.31-3.32.11.07.21.16.35.22.24.09.53.14.77.17.21.03.42.01.61.03.23.01.44.05.66.07-.02.07-.03.13-.04.17-.03.25-.05.51-.07.76-.1.98-.05,2-.03,2.99Zm-1.05-5.87c-.31.09-.62.21-.91.37-.16.09-.27.25-.4.37-.03-.14-.05-.29-.1-.43,0,0,0,0,0-.01,0-.01-.01-.03-.02-.07-.11-.36-.23-.69-.48-.99-.52-.61-1.31-.86-2.09-.64-.63.18-1.23.52-1.82.8-.36.18-.79.4-1.13.67-.07-.11-.15-.2-.27-.31-.34-.3-.39-.35-.16-.16-.05-.05-.11-.11-.16-.16-.3-.29-.67-.59-1.11-.6-.06-.03-.12-.06-.18-.09-.08-.03-.17-.07-.25-.1-.27-.1-.55-.16-.83-.2-.69-.09-1.7.07-2.19.62-.06-.2-.12-.4-.21-.59-.2-.46-.74-.86-1.25-.88-1.36-.04-2.75.43-3.33,1.75-.01-.01-.02-.04-.03-.05-.03-.05-.07-.09-.11-.14-.14-.17-.3-.32-.46-.44-.15-.11-.31-.18-.47-.25-.02-.02-.04-.05-.06-.07-.13-.2-.33-.35-.53-.46-.15-.07-.3-.14-.45-.2-.25-.1-.49-.2-.74-.29-.14-.05-.27-.08-.42-.12,3.14-2.38,5.78-5.78,8.38-8.71,1.53-1.73,3.03-3.48,4.51-5.25,1.7,2.88,3.6,5.64,5.26,8.55.92,1.59,1.8,3.2,2.64,4.83.42.81.85,1.62,1.24,2.45.07.15.12.3.18.45-.08,0-.16-.03-.24-.03-.65-.01-1.21.22-1.81.4Zm-5.81,5.21c-.07-.55-.1-1.1-.14-1.64-.05-.62-.14-1.26-.3-1.88.26-.01.52-.06.79-.09.34-.03.69-.11,1.03-.19.01.44.06.88.09,1.29.07,1.06.16,2.12.24,3.18.03.42.09.86.19,1.26-.36.01-.73.03-1.09.04-.25.01-.5.02-.75.03.15-.67.03-1.33-.06-2.01Zm-5.3-.62c-.12-.65-.23-1.31-.34-1.96-.11-.65-.22-1.31-.32-1.97-.01-.07-.02-.14-.03-.22.14.04.29.06.47.04.06,0,.12,0,.19,0,.02,0,.14,0,.15.01.09,0,.18.01.27.02.03,0,.1.02.15.03.13.04.25.09.38.14,0,0,.02.02.03.02.05.17.15.33.25.47h0s.02.02.03.04c0-.01-.02-.02-.02-.03.01.05.05.18.16.47.04.11.09.21.14.31.02.05.04.1.06.16.04.12.03.07-.04-.15.1.08.14.55.16.67.04.21.07.42.1.63.06.46.08.91.11,1.37.05.88.11,1.91.55,2.7-.93.04-1.85.09-2.78.15.12-.14.23-.29.31-.46.07-.12.11-.26.13-.39,0-.03.02-.08.04-.19.07-.32.07-.63.03-.96-.04-.3-.11-.6-.16-.91Zm-2.28,3.02c-.9.05-1.79.1-2.69.16-.02,0-.05,0-.08,0-.01-1.01-.15-2.03-.24-3.04-.1-1.12-.15-2.26-.31-3.37.13-.25.21-.53.23-.82.27.16.6.22.92.07.06-.03.13-.06.2-.08.01,0,.02-.01.03-.01t.04,0s.09-.02.13-.03c.03.26.07.51.11.76.1.66.2,1.31.3,1.97.1.65.21,1.31.32,1.97.05.3.09.61.15.91.05.25.12.49.24.71.15.25.22.35.23.36.06.11.14.22.25.3.06.05.12.1.18.14Zm14.3-11.4c-.86-1.62-1.75-3.23-2.67-4.81-1.63-2.8-3.32-5.71-5.33-8.27.83-.99,1.63-2,2.44-3,.85-.03,1.7-.06,2.54-.09-.16.22-.32.44-.48.66-.07.11.08.21.17.12.23-.26.44-.53.66-.79.48-.02.95-.03,1.42-.05,1.47-.06,3.05-.09,4.57-.29,1.47.03,2.93.04,4.4.06-.89,2.76-1.77,5.53-2.69,8.29-.71,2.11-1.41,4.22-2.12,6.33-.37,1.12-.76,2.24-1.14,3.36-.13.4-.29.79-.37,1.18-.05-.08-.11-.17-.15-.26-.42-.81-.83-1.63-1.26-2.45Zm-4.02-17.98c.52-.66,1.02-1.34,1.54-2,.91-1.03,1.82-2.07,2.73-3.1-.14.29.23.53.44.28,2.03-2.31,3.67-4.83,5.33-7.42.67-1.06,1.34-2.13,2-3.19,0,.17,0,.35,0,.53-.81,1.4-1.62,2.79-2.47,4.16-2.28,3.69-4.75,7.25-7.28,10.76-.79.01-1.58.04-2.37.07.02-.03.05-.06.07-.08Zm8.93-.2c1.14-1.88,2.19-3.82,3.21-5.77,0,2.05,0,4.09.03,6.13-.03.1-.06.2-.1.3-.78,0-1.57-.01-2.36-.02-.01,0-.02-.02-.04-.02-2.13-.55-4.55-.46-6.74-.43h-.08c2.71-3.32,5.2-6.82,7.52-10.42.59-.92,1.16-1.84,1.72-2.76,0,.14,0,.29.01.43,0,1.57.02,3.15.02,4.72-1.21,2.54-2.42,5.08-3.59,7.64-.11.23.26.43.39.21Zm16.44-39.6c.93.38,1.84.78,2.82,1.09.46.15.92.29,1.38.42-.22.08-.41.24-.48.5-.01.05-.02.1-.04.16-.77-.19-1.55-.36-2.33-.52-.51-.1-1.03-.22-1.55-.3.05-.18.11-.35.16-.52.04-.16-.18-.25-.24-.09-.06.19-.14.37-.21.56-.05,0-.11-.02-.17-.03.22-.42.44-.84.66-1.26Zm-7.61,15.01s-.02.03-.04.04c-.09-.02-.18,0-.25.09-.34.52-.65,1.05-.96,1.58,0-.03-.02-.07-.03-.1.62-1.15,1.26-2.29,1.87-3.45.38-.19.6-.54.87-.88.31-.39.61-.78.89-1.2.6-.9,1.14-1.87,1.59-2.85.11-.25.22-.5.33-.74-.49,1.69-.97,3.38-1.47,5.06-.6,1.5-1.23,3-1.85,4.49-.05-.21-.08-.42-.14-.63-.02-.1-.18-1.01-.13-.94.07.1.25.01.22-.1-.11-.41-.53-.59-.91-.37Zm-3.32,7.58c.54-.96,1.08-1.93,1.59-2.92.19.85.35,1.7.5,2.55-.72,1.63-1.46,3.26-2.21,4.87-.02-1.38-.06-2.77-.08-4.15.06-.12.14-.24.2-.35Zm2.36,1.39c.04.28.07.55.11.82-.81,2.68-1.63,5.37-2.47,8.04-.02-1.17-.05-2.33-.07-3.5.84-1.78,1.65-3.57,2.43-5.37Zm.05-5.99c.29-.62.56-1.24.8-1.88.09.95.2,1.89.28,2.84-.19.44-.36.89-.55,1.33-.17-.77-.33-1.54-.53-2.3Zm-3.09,5.76c.01,1.47.04,2.94.06,4.41-.21.43-.41.87-.62,1.31-.01-1.55-.04-3.11-.05-4.66.2-.35.4-.7.61-1.05Zm.09,6.7c.01,1.37.03,2.75.05,4.12-.19.6-.38,1.21-.57,1.81-.02-.84-.05-1.68-.07-2.52,0-.73-.01-1.47-.02-2.2.2-.41.42-.81.61-1.22Zm.16,10.88c.09,4.61.21,9.23.34,13.84.04,1.47.08,2.95.12,4.42-.21-3.12-.44-6.25-.6-9.37-.15-2.97-.29-5.93-.39-8.9.18,0,.35,0,.53,0Zm.1,24.85c.03.25.31.33.51.26.01.66.02,1.33.03,2-.05-.08-.09-.15-.14-.23-.16-.25-.32-.48-.54-.68-.01-.02-.04-.03-.05-.05-.05-1.47-.1-2.93-.15-4.39.1,1.03.21,2.06.33,3.09Zm16.5-64.36c.52.15,1.03.3,1.55.46,2.56.77,5.11,1.52,7.68,2.27.59.18,1.19.35,1.79.52-.04.01-.08.02-.11.05-.06.07-.11.13-.16.2l-3.48-.92c-2.3-.61-4.61-1.19-6.92-1.77-.09-.24-.17-.48-.28-.7-.02-.04-.05-.07-.07-.11Zm11.72,3.45c3.85,1.12,7.7,2.24,11.55,3.35-3.76-.99-7.53-1.99-11.29-2.99-.06-.14-.15-.27-.26-.37Zm42.33-22.4c1.75,1.96,2.98,4,3.6,6.59.66,2.74.74,5.61.66,8.42-.09,3.36-.83,6.5-2.16,9.59-.65,1.52-1.4,2.99-2.15,4.47-.34.66-.62,1.47-1.22,1.93-.06.05-.13.08-.2.12.1-.15.2-.32.31-.51.27-.45.52-.91.77-1.38.14-.2.29-.38.42-.58.63-.95,1.15-2.03,1.18-3.16.44-1.27.79-2.57,1.07-3.89.89-4.2,1.2-8.6.54-12.85-.01-.08-.14-.06-.13.02.26,4.27-.07,8.52-1.44,12.59-.62,1.87-1.41,3.68-2.3,5.44-.48.95-.98,1.89-1.53,2.8-.25.41-.55.83-.72,1.28-.12.3-.1.52-.06.78-.02.06-.03.11-.05.17-.81-.24-1.62-.47-2.42-.7-.04-.01-.08-.02-.12-.03,1.04-1.29,1.79-2.92,2.52-4.37.87-1.71,1.64-3.46,2.31-5.25,1.32-3.5,2.1-7.18,2.35-10.91,0-.1-.15-.12-.16-.01-.39,3.68-1.28,7.31-2.69,10.74-.69,1.69-1.53,3.32-2.52,4.86-1.02,1.57-2.35,2.89-3.38,4.44,0,.01,0,.03-.02.04-.72-.21-1.44-.41-2.16-.62.89-.77,1.53-1.77,2.18-2.75.72-1.1,1.35-2.25,1.95-3.42,1.21-2.39,2.22-4.88,3.03-7.43.06-.19-.23-.3-.3-.11-.91,2.5-2.03,4.9-3.39,7.2-.65,1.1-1.36,2.17-2.07,3.23-.7,1.03-1.5,1.99-2.03,3.12-2.93-.85-5.86-1.69-8.79-2.54-4.48-1.29-8.95-2.58-13.43-3.87.35-.5.57-1.13.8-1.66.37-.84.71-1.7,1.01-2.56.6-1.71,1.2-3.55,1.21-5.38,0-.21-.28-.29-.36-.08-.67,1.64-1.08,3.38-1.76,5.03-.33.83-.71,1.64-1.11,2.43-.19.38-.39.75-.6,1.12-.15.26-.29.5-.38.76-.57-.17-1.14-.33-1.71-.5.25-.19.37-.45.53-.83.18-.46.35-.93.52-1.4.37-1.04.72-2.09,1.02-3.15.56-1.99,1.15-4.19,1.11-6.27,0-.12-.18-.19-.23-.05-.32,1-.52,2.05-.79,3.07-.29,1.03-.59,2.05-.95,3.05-.35,1-.75,2-1.19,2.97-.21.45-.43.9-.66,1.35-.21.41-.29.66-.23,1.01-1.41-.4-2.82-.81-4.22-1.21,1.31-3.63,2.13-7.41,3.02-11.16.89-3.76,1.63-7.58,1.93-11.44.01-.17-.22-.18-.25-.02-.7,3.89-1.4,7.78-2.45,11.6-.99,3.63-2.47,7.08-3.86,10.56-.49-.14-.97-.28-1.46-.42.39-.4.62-.97.88-1.5.46-.9.88-1.81,1.25-2.75.69-1.82,1.24-3.72,1.72-5.61.95-3.78,1.6-7.59,1.6-11.49,0-.11-.16-.13-.17-.02-.38,3.86-1.03,7.72-2.31,11.39-.59,1.7-1.32,3.33-2.11,4.94.29-1.38.56-2.77.75-4.17.44-3.2.6-6.43.45-9.66-.16-3.27-.67-6.52-1.47-9.69-.39-1.56-.78-3.12-1.26-4.66-.24-.75-.48-1.5-.75-2.23-.12-.35-.25-.7-.38-1.04-.01-.04-.04-.09-.06-.15.1-.36.21-.72.31-1.09.14-.47-.37-.79-.71-.67.04-.12.06-.25.05-.37.42.2.85.4,1.25.59,1.7.82,3.41,1.63,5.12,2.42,3.43,1.59,6.9,3.1,10.38,4.56,6.97,2.93,14.02,5.66,21.17,8.11,2.05.7,4.1,1.38,6.15,2.04.54.17,1.08.34,1.61.51,0,.09.02.19.1.27Zm-21.17-39.42c.01-.36.02-.7.06-1.05.01-.12-.02-.89-.01-.91.02-.04.33-.14.39-.18.06-.04.11-.09.16-.14.19-.07.33-.2.43-.35-.45,1.56-.54,3.2-.58,4.83-.15-.18-.3-.35-.47-.53,0-.55.02-1.11.02-1.66Zm-1,23.34c.09-1.26.19-2.51.28-3.77.2-2.66.36-5.32.53-7.97.16-2.6.09-5.2.14-7.8.01-.54.01-1.08.02-1.62.15.19.31.38.46.58-.01.52-.02,1.03-.04,1.54-.09,2.52-.18,5.05-.27,7.57-.16,4.75-.23,9.51-.54,14.25h-.06c-.01-.83-.12-1.65-.3-2.45-.02-.13-.13-.2-.24-.21,0-.04,0-.08,0-.12Zm-23.02-4.27l5.5,2.26c3.66,1.51,7.33,3.01,11,4.51,7.34,2.99,14.68,5.98,22.01,8.98,1.76.72,3.52,1.45,5.28,2.18-1.45-.49-2.89-.99-4.33-1.51-3.56-1.27-7.1-2.59-10.63-3.93-7.07-2.69-14.04-5.63-20.93-8.73-1.97-.89-3.94-1.78-5.89-2.69-1.06-.5-2.13-1.07-3.24-1.53.43.16.85.31,1.23.47Zm-.71,5.48c.23.69.46,1.38.66,2.08.45,1.54.87,3.1,1.14,4.68.54,3.16.82,6.36.89,9.57.06,3.15-.06,6.31-.48,9.43-.21,1.59-.49,3.18-.84,4.74-.18.77-.42,1.54-.55,2.32-.11.67.15.83.24,1.38,0,.02.01.02.02.04-.05.16-.09.32-.1.49-.1-.03-.21-.06-.32-.09-2.42-.7-4.85-1.38-7.28-2.05-1.2-.33-2.4-.68-3.61-.99-.9-.23-1.79-.37-2.69-.53.54-1.05,1.07-2.1,1.59-3.15,1.37-2.64,2.7-5.31,3.93-8.02,1.5-3.29,2.86-6.62,4.1-9.99.53-1.36,1.03-2.74,1.45-4.14.65-1.92,1.27-3.85,1.86-5.8Zm-26.89,43.29c-.08-.08-.23,0-.18.11,0,.01.02.02.03.04-.17-.04-.35-.09-.52-.13.4-.99.21-2.26.22-3.31.02-1.27.04-2.54.06-3.8.04-2.54.08-5.07.12-7.61.04-2.46.07-4.93.11-7.39,0-.48.02-.96.03-1.44.02.38.05.77.07,1.16.14,2.58.26,5.15.35,7.74.02.67.03,1.34.05,2.01-.01.29-.02.57-.02.85-.11,3.93-.16,7.87-.19,11.81-.05.01-.09.01-.15-.03Zm-30.2,53.59c.25-.12.47-.35.46-.63.14-.62.15-1.28.18-1.91,0-.17.01-.33.02-.5.17.05.34.08.51.13.08.17.19.33.31.45.09.08.19.15.3.2.09.23.22.42.4.6,0,.02,0,.04-.01.07-.03.16-.05.32-.07.48-.03.27-.04.54-.05.82-.04.65-.05,1.31-.03,1.96.03.6,0,1.32.16,1.9.1.38.11.86.25,1.26-.5.02-1,.04-1.49.12-.12.02-.23.05-.34.08-.17-1.68-.36-3.35-.6-5.02Zm.86,7.56c-.04-.38-.08-.76-.11-1.15.09.02.17.05.27.06.67.09,1.37.09,2.05.1,1.26.01,2.52-.04,3.77-.11.79-.04,1.59-.11,2.39-.19,2.44.16,4.89.25,7.33.36,2.46.11,4.89.23,7.36.24,1.26,0,2.53.02,3.79.02s2.71.11,4.01-.12c.24-.04.44-.13.61-.24.19.14.43.19.65.12.02,0,.04-.02.06-.03,0,.13,0,.26,0,.38,0,.03.01.04.01.07,0,.07,0,.15,0,.22-2.63-.09-5.28,0-7.9,0h-8.7c-2.9,0-5.8,0-8.71.02-1.34.01-2.69,0-4.04.05-.92.04-1.95.04-2.86.32,0-.04,0-.09-.01-.13Zm.33,3.35c-.07-.75-.15-1.51-.23-2.26.84.24,1.78.25,2.61.29,1.48.07,2.97.04,4.45.06,2.9.02,5.8.01,8.7.01h8.7c2.59,0,5.2.08,7.79-.02.04.38.1.76.17,1.14.02.13.05.25.08.38h0c-5.52.01-11.05.01-16.57.02-2.83,0-5.66-.01-8.49.01-1.42,0-2.83,0-4.25.04-.63.01-1.28.02-1.91.09-.38.04-.72.13-1.05.23Zm1.65,31.13c1.15-1.97,2.28-3.96,3.98-5.53.9-.82,1.88-1.52,2.95-2.09.53-.28,1.09-.49,1.61-.77.2.49.37.98.55,1.47.45,1.2.75,2.48,1,3.74.18.89.16,2.32.83,3.04-3.63.01-7.28,0-10.92.13Zm146.83-29.63c-.09.55-.11,1.14-.1,1.7,0,.28,0,.56,0,.84-.92,4.37-2.37,8.59-4.63,12.54-1.57,2.73-3.44,5.31-5.55,7.65-1.11,1.23-2.3,2.4-3.56,3.49-1.07.93-2.66,1.75-3.34,3.01h-1.6c1.77-.76,3.22-2.31,4.56-3.66,2.08-2.09,3.97-4.37,5.66-6.79,1.76-2.52,3.29-5.22,4.52-8.04.24-.22.36-.55.36-.86.96-2.33,1.73-4.73,2.24-7.2.33-1.61.56-3.24.66-4.88.1-1.64.18-3.39.05-5.02-.01-.15-.07-.26-.14-.36.01,0,.03,0,.04-.01.05-.02.1-.05.15-.07.79-.15,1.36-.62,2.01-1.09.05-.03.11-.07.16-.11-.25.6-.33,1.47-.4,1.86-.22,1.16-.36,2.34-.54,3.51-.18,1.17-.39,2.33-.57,3.5Zm-4.95-2.52c-.02-.16-.06-.32-.11-.49.83.02,1.66.03,2.49.05.06,0,.12-.02.18-.03-.01.44-.01.88-.04,1.31-.03.4-.08.8-.12,1.19-.07-.02-.13-.05-.2-.06-.72-.07-1.46-.08-2.19-.07.02-.07.04-.15.05-.23.11-.55.01-1.12-.06-1.67Zm15.8-7.8c.84,1.66.62,3.76-.09,5.42-.31.71-.75,1.51-1.44,1.93-.62.37-1.51.57-2.18.22-.58-.31-1-.97-1.08-1.61-.04-.3-.05-.64.12-.89.08-.12.72-.57.56-.2-.09.22.08.55.33.54.54-.01.88-.39.8-.94-.1-.67-.71-.92-1.31-.8-.96.18-1.68,1.19-1.69,2.13-.01.74.25,1.46.69,2.05-.6.28-1.16.76-1.58,1.21-.82.87-1.47,1.9-2.05,2.94-.41.74-.81,1.51-1.18,2.32.11-.62.21-1.24.29-1.87.3-.52.54-1.15.68-1.72.3-1.23.53-2.46.71-3.71.05-.41.39-3.32.24-5.01.64-.59,1.31-1.15,1.95-1.76.64-.62,1.39-1.19,2.22-1.51,1.49-.58,3.26-.23,4.02,1.27Zm31.86-27.44c-1.64,1.02-3.28,2.04-4.91,3.07-3.14,1.98-6.27,3.97-9.38,6-6.47,4.22-12.9,8.5-19.27,12.87-1.77,1.21-3.53,2.42-5.28,3.64-.6.42-1.21.84-1.81,1.26-.04-.02-.08-.04-.14-.04-.24-.01-.43.05-.64.16-.15.08-.35.16-.49.27-.08.03-.08.04,0,.03-.09,0-.18.02-.26.06-.12.05-.24.14-.35.22-.15.11-.31.21-.47.32-.31.22-.61.44-.89.69-.14.12-.28.26-.39.4-.08-.05-.16-.11-.24-.16-.16-.1-.35-.18-.52-.27-.1-.05-.22-.08-.33-.1-.19-.07-.37-.14-.56-.22-.23-.09-.52-.08-.76.02-.01,0-.03-.01-.04-.01-.06-.01-.13-.03-.19-.04-.11-.01-.21.02-.31.07-.02,0-.05-.02-.08-.03-.22-.09-.45.22-.27.39.02.02.04.04.06.06,0,.08,0,.15.02.23.03.09.07.16.13.23.01.02.03.04.04.05,0,.25.08.51.24.67.14.14.28.29.42.44,0,0,0,.01.01.02.1.16.24.28.38.4.09.07.17.15.26.22.08.06.17.11.26.17.04.02.09.05.13.08.05.03.1.06.16.08-.02.29-.01.59.05.91.03.17.15.32.29.43.01.11.01.22.02.33-2.34.05-4.68.07-7.01.22-1.21.08-2.42.17-3.63.22-1.15.04-2.22.08-3.33.36-.12.03-.16.22-.02.26,1.09.28,2.14.32,3.27.37.68.03,1.37.07,2.06.11-.01.06-.04.11-.05.17-.08.33-.11.68-.16,1.01-.04.31-.05.61-.07.92-.01.21-.02.42-.03.63-.53,0-1.05,0-1.58.01-1.85,0-3.71.05-5.56.11-.01-.39-.05-.79-.09-1.18-.02-.21-.03-.42-.07-.63,0-.04-.01-.07-.02-.11-.02-.07-.05-.14-.11-.2l.06.1s-.02-.06-.02-.09c-.04-.16-.12-.25-.22-.32-.08-.21-.09-.45-.12-.68-.02-.16-.26-.14-.28.01-.03.23-.05.45-.12.66-.09.07-.16.15-.21.27,0,.01-.03.15-.02.1.03-.05.01-.01-.06.12-.01.05-.02.1-.03.15-.03.21-.04.43-.06.64-.04.4-.09.8-.1,1.21-.75.02-1.5.04-2.25.07-.01-.38-.02-.77-.08-1.16-.03-.25-.09-.48-.16-.71-.03-.12-.06-.25-.11-.36-.05-.11-.13-.21-.17-.32-.05-.12-.23-.1-.27,0-.04.12-.13.22-.18.33-.04.1-.06.21-.09.31-.07.26-.13.52-.17.79-.06.38-.06.76-.08,1.15-2.05.07-4.1.11-6.16.16-.01-.04-.02-.08-.04-.12.02.04.02.05.01,0,0-.03-.01-.06-.01-.08-.02-.13-.05-.26-.07-.38-.02-.1-.09-.2-.19-.25-.01-.14-.03-.28-.05-.41-.02-.15-.25-.13-.27.01-.01.14-.03.28-.05.42-.09.06-.16.13-.19.26-.02.12-.04.24-.07.36,0,.03,0,.06-.01.09,0,.01-.01.03-.01.04,0,0,0-.01,0,0-.01.02-.02.05-.02.08,0,0,0,0,0,.01-4.33.1-8.66.2-12.99.31-.31.01-.38.5-.04.51,4.3.12,8.61.22,12.91.32.09.26.36.45.65.44.27,0,.47-.18.56-.41,2.16.05,4.33.1,6.49.17,3.4.11,6.8.24,10.2.26,3.34.02,6.81.3,10.15.01-.1.61-.2,1.22-.32,1.83-.1.48-.22.95-.34,1.43-.1-.05-.23-.08-.38-.08-17.31.13-34.62.23-51.92.78-.15,0-.18.23-.02.24,16.92.55,33.85.65,50.78.78-.03.19-.04.38-.07.57,0,.07-.02.13-.03.2t0,.01c-.01.06-.03.12-.04.19,0,.02,0,.04-.01.07h0c-.02.08-.04.16-.06.23-.03.12-.07.24-.1.37,0,.03-.01.05-.01.08,0,0,0,.03-.01.05-.04.14-.08.28-.15.42-.04.1-.07.18-.1.27-5.74.02-11.48.1-17.23.28-2.98.09-5.96.17-8.94.23-3.13.06-6.25.3-9.37.38-.18,0-.21.27-.02.28,3.03.07,6.05.31,9.09.37,3.04.05,6.07.13,9.11.23,5.31.17,10.63.24,15.94.27-.03.26-.06.51-.11.76-.08.43-.19.85-.33,1.26-.28.84-.66,1.63-1.14,2.37-.48.74-1.04,1.42-1.68,2.02-.33.31-.69.61-1.05.9-.2.16-.45.33-.6.55-7.16-.03-14.33,0-21.49.08-7.44.09-14.94.09-22.35.77-.15.01-.14.25.01.26,7.42.68,14.93.69,22.38.77,6.84.07,13.68.1,20.52.08-.09.09-.17.19-.24.29-.05.07-.09.15-.14.23-.02.04-.05.08-.07.11-.06.11-.09.22-.11.34-.09.14-.17.29-.27.42-.27.38-.55.7-.88,1.02-.34.32-.71.62-1.11.89-.32.22-.67.44-.98.7-7.53.01-15.07.03-22.59.18-7.93.16-15.86.27-23.78.5-.24,0-.28.36-.04.37,7.89.23,15.79.34,23.69.5,7.25.15,14.51.17,21.77.18-.04.06-.08.12-.13.18-.24.3-.46.58-.73.83-.58.53-1.18,1-1.91,1.28-.05.01-.06.06-.06.1-.22.09-.44.18-.66.25-.02,0-.03.02-.04.03-10.56,0-21.12,0-31.69,0-20.97,0-41.94-.09-62.91.09-5.81.05-11.63.11-17.44.16-.5,0-1,0-1.5,0,.63-.71.48-2.06.45-2.93-.04-1.27-.14-2.53-.31-3.8-.3-2.23-1.05-4.45-2.63-6.11-.76-.81-1.67-1.44-2.55-2.11-.21-.16-.42-.32-.62-.5.68.02,1.36.03,2.04.03,2.05,0,4.09.03,6.13.02,4.18,0,8.33-.21,12.5-.29.68-.01.8-1.06.1-1.07-4.22-.08-8.42-.29-12.65-.29-2.11,0-4.23.01-6.34.03-.98,0-1.98,0-2.97.07-.19.01-.39.03-.58.06-.75-.6-1.16-1.96-1.39-2.85-.26-1.01-.45-2.03-.61-3.05-.01-.04-.03-.07-.05-.1.33.02.65.04.98.05,1.41.08,2.82.11,4.23.12,2.89.02,5.79.04,8.68.03,2.83-.01,5.65-.03,8.48-.05,2.91-.03,5.81-.26,8.72-.32.59-.01.71-.93.09-.94-2.88-.07-5.77-.3-8.65-.32-2.9-.03-5.79-.04-8.69-.05-2.82,0-5.65.01-8.47.03-1.41.01-2.82.04-4.22.11-.7.04-1.4.08-2.1.14-.33.03-.62.09-.92.17-.01,0-.03,0-.04-.02-.06-.02-.12-.05-.18-.07-.01-.01-.02-.01-.03-.02-.23-.13-.44-.26-.64-.43h-.01c-.07-.1-.24-.23-.28-.26-.03-.03-.09-.09-.13-.12h0c-.18-.17-.33-.36-.49-.56-.08-.87-.16-1.75-.25-2.62-.05-.55-.11-1.09-.16-1.64.02-.02.05-.03.07-.05.03-.04.04-.09.05-.14.21.05.41.11.64.14.7.08,1.41.09,2.11.11,1.41.03,2.83.02,4.24.03,2.83.02,5.66.01,8.48.01,5.57,0,11.14,0,16.7.01,0,0,0,0,0,0,.02.02.04.04.06.05.02.02.04.04.06.06.01.01.02.02.03.03.02.01.04.02.07.04.02.01.05.02.07.04.02.01.04.01.06.02.03.01.06.02.09.03.01.04.04.08.07.11.25.53.54,1.03.97,1.45.99.96,2.43,1.63,3.81,1.51.36-.03.71-.02,1.07-.08.25-.03.42-.11.64-.22-.22.11.12,0,.19,0,.33-.05.71-.11,1.08-.2,1.25.31,2.54.43,3.89.47,2.56.07,5.13.02,7.7,0,2.52-.02,5.04-.07,7.55-.1,2.62-.03,5.14-.06,7.72-.57.18-.03.27-.16.31-.3.17.01.34.02.51.02,1.14-.05,2.23-.59,3.18-1.17.99-.61,1.89-1.37,2.89-1.98.49-.3.99-.53,1.51-.76.53.05,1.06.1,1.59.12,1.82.07,3.65,0,5.47-.05,3.66-.09,7.32-.2,10.98-.33,3.64-.13,7.29-.29,10.94-.44,1.82-.07,3.64-.22,5.47-.32.77-.04,1.58-.05,2.39-.09.64.61,1.58.58,2.42.4,1.32-.28,2.64-.51,3.95-.87,2.61-.7,5.23-1.41,7.86-2.04,2.57-.62,5.17-1.14,7.73-1.79,1.29-.33,2.58-.66,3.84-1.1,1.29-.44,2.66-.78,3.89-1.38.38-.18.26-.74-.14-.8-1.23-.17-2.5-.05-3.74-.05s-2.37.11-3.56.26c-1.42.18-2.84.46-4.25.76h0s0-.01,0-.02c.26-.39.52-.77.78-1.16,3.12-3.14,6.04-6.52,9.02-9.79,2.26-2.47,4.48-5.35,7.15-7.5.15.05.32.06.52-.03,1.25-.6,2.32-1.48,3.61-2.04,1.48-.64,2.99-1.21,4.48-1.83.82-.34,1.64-.67,2.45-1.01,1.81-.62,3.62-1.24,5.42-1.86,4.56-1.58,9.13-3.2,13.8-4.46,2.6-.7,5.22-1.28,7.88-1.68,1.26-.19,2.52-.34,3.79-.43.82-.06,1.64-.07,2.46-.1-2.81,1.76-5.81,3.22-8.64,4.96-3.31,2.03-6.61,4.07-9.93,6.08-6.76,4.1-13.53,8.16-20.28,12.27-1.87,1.14-3.74,2.28-5.6,3.43-1.64,1.01-3.79,1.86-4.61,3.7-.1.23.09.51.33.53,1.84.09,3.31-1.18,4.82-2.1,1.69-1.03,3.37-2.06,5.05-3.1,3.3-2.05,6.6-4.1,9.89-6.16,6.71-4.2,13.42-8.37,20.16-12.52,3.57-2.2,6.91-4.8,10.57-6.83.13.44.32.86.59,1.24-1.18.51-2.26,1.25-3.35,1.93Zm-50.07,37.01c.01.06.05.11.07.17-.19,0-.37,0-.56.01-.59,0-1.18,0-1.77,0-.01-.23-.03-.46-.04-.68-.01-.31-.03-.61-.07-.92-.04-.3-.06-.61-.14-.91-.01-.04-.02-.09-.04-.13.1,0,.2.01.3.02.81.05,1.62.09,2.43.12-.05.21-.11.43-.14.64-.07.56-.15,1.11-.03,1.67Z"/>
        <path class="cls-4" d="m219.07,286.92c.04-.2-.2-.36-.34-.18-.27.37-.47.81-.69,1.21-.23.41-.45.82-.69,1.21-.48.8-1,1.57-1.49,2.37-.05.09.06.22.15.13.69-.65,1.26-1.4,1.77-2.2.25-.39.49-.79.7-1.2.22-.42.47-.89.59-1.35Z"/>
      </g>
      <rect class="cls-1" width="564.39" height="564.39"/>
      <circle class="cls-2" cx="282.2" cy="11" r="11"/>
      <circle class="cls-2" cx="374.95" cy="27.36" r="11"/>
      <circle class="cls-2" cx="456.52" cy="74.45" r="11"/>
      <circle class="cls-2" cx="517.06" cy="146.6" r="11"/>
      <circle class="cls-2" cx="549.27" cy="235.1" r="11"/>
      <circle class="cls-2" cx="549.27" cy="329.29" r="11"/>
      <circle class="cls-2" cx="517.06" cy="417.79" r="11"/>
      <circle class="cls-2" cx="456.52" cy="489.94" r="11"/>
      <circle class="cls-2" cx="374.95" cy="537.04" r="11"/>
      <circle class="cls-2" cx="282.2" cy="553.39" r="11"/>
    </g>
  </g>
</svg>