<svg xmlns="http://www.w3.org/2000/svg" xmlns:xlink="http://www.w3.org/1999/xlink" viewBox="0 0 1533.76 147.59" xmlns:v="https://vecta.io/nano"><defs><linearGradient id="A" x1="763.67" x2="763.32" y1="145.24" y2=".97" xlink:href="#AP"><stop offset="0" stop-color="#f5ad24"/><stop offset="1" stop-color="#ffe56b"/></linearGradient><linearGradient id="B" x1="40.11" x2="65.23" y1="30.44" y2="30.44" xlink:href="#AP"><stop offset=".06" stop-color="#9e651e"/><stop offset=".41" stop-color="#eda82b"/><stop offset=".49" stop-color="#f3b637"/><stop offset=".63" stop-color="#fbca48"/><stop offset=".72" stop-color="#ffd24f"/><stop offset="1" stop-color="#fff4e1"/></linearGradient><linearGradient id="C" x1="41.21" x2="51.14" y1="30.85" y2="30.85" xlink:href="#AP"><stop offset="0"/><stop offset="1" stop-color="#ffd426"/></linearGradient><linearGradient id="D" x1="43.97" x2="65.23" y1="30.44" y2="30.44" xlink:href="#AP"><stop offset="0" stop-color="#80521a"/><stop offset="1" stop-color="#fff"/></linearGradient><linearGradient xlink:href="#C" id="E" x1="47.3" x2="65.23" y1="16.54" y2="16.54"/><linearGradient id="F" x1="44.35" x2="59.35" y1="42.85" y2="9.02" xlink:href="#AP"><stop offset="0" stop-color="#9c6100"/><stop offset="1" stop-color="#ffcd59"/></linearGradient><linearGradient xlink:href="#B" id="G" x1="33.92" x2="33.92" y1="77.15" y2="14.93"/><linearGradient id="H" x1="16.65" x2="39.64" y1="46.04" y2="46.04" xlink:href="#AP"><stop offset="0" stop-color="#fff"/><stop offset="1" stop-color="#80521a"/></linearGradient><linearGradient xlink:href="#C" id="I" x1="27.72" x2="27.72" y1="51.12" y2="14.93"/><linearGradient xlink:href="#C" id="J" x1="31.2" x2="41.58" y1="38.1" y2="38.1"/><linearGradient xlink:href="#C" id="K" x1="33.17" x2="50.41" y1="49.54" y2="49.54"/><linearGradient xlink:href="#D" id="L" x1="34.25" x2="34.25" y1="77.15" y2="36.01"/><linearGradient xlink:href="#F" id="M" x1="39.37" x2="24.79" y1="65.16" y2="16.47"/><linearGradient id="N" x1="0" x2="53.07" y1="83.02" y2="83.02" xlink:href="#AP"><stop offset="0" stop-color="#fff4e1"/><stop offset=".28" stop-color="#ffd24f"/><stop offset=".37" stop-color="#fbca48"/><stop offset=".51" stop-color="#f3b637"/><stop offset=".59" stop-color="#eda82b"/><stop offset=".94" stop-color="#9e651e"/></linearGradient><linearGradient xlink:href="#H" id="O" x1="0" x2="53.07" y1="83.02" y2="83.02"/><linearGradient xlink:href="#H" id="P" x1="13.03" x2="53.07" y1="90.81" y2="90.81"/><linearGradient xlink:href="#C" id="Q" x1="29.5" x2="29.5" y1="96.39" y2="65.66"/><linearGradient xlink:href="#C" id="R" x1="6.58" x2="6.58" y1="83.27" y2="52.91"/><linearGradient xlink:href="#C" id="S" x1="38.93" x2="38.93" y1="99.43" y2="76.37"/><linearGradient id="T" x1="-2.51" x2="49.15" y1="56.82" y2="109.6" xlink:href="#AP"><stop offset="0" stop-color="#ffcd59"/><stop offset="1" stop-color="#9c6100"/></linearGradient><linearGradient id="U" x1="20.26" x2="77.09" y1="124.15" y2="124.15" xlink:href="#AP"><stop offset="0" stop-color="#eda82b"/><stop offset=".94" stop-color="#9e5b08"/></linearGradient><linearGradient id="V" x1="20.26" x2="55.55" y1="125.54" y2="125.54" xlink:href="#AP"><stop offset="0" stop-color="#ffd426"/><stop offset="1"/></linearGradient><linearGradient id="W" x1="20.26" x2="68.01" y1="116.86" y2="116.86" xlink:href="#AP"><stop offset="0" stop-color="#ffe887"/><stop offset=".13" stop-color="#d4c170"/><stop offset=".37" stop-color="#897d48"/><stop offset=".59" stop-color="#4e4729"/><stop offset=".77" stop-color="#232013"/><stop offset=".92" stop-color="#090805"/><stop offset="1"/></linearGradient><linearGradient xlink:href="#H" id="X" x1="50.15" x2="77.09" y1="124.15" y2="124.15"/><linearGradient xlink:href="#T" id="Y" x1="20.26" x2="72.04" y1="126.89" y2="126.89"/><linearGradient xlink:href="#B" id="Z" x1="1493.66" x2="1468.53"/><linearGradient xlink:href="#C" id="a" x1="1492.55" x2="1482.62"/><linearGradient xlink:href="#D" id="b" x1="1489.79" x2="1468.53"/><linearGradient xlink:href="#C" id="c" x1="1486.47" x2="1468.53" y1="16.54" y2="16.54"/><linearGradient xlink:href="#F" id="d" x1="1489.42" x2="1474.41"/><linearGradient xlink:href="#B" id="e" x1="1499.84" x2="1499.84" y1="77.15" y2="14.93"/><linearGradient xlink:href="#H" id="f" x1="1517.12" x2="1494.12"/><linearGradient xlink:href="#C" id="g" x1="1506.04" x2="1506.04" y1="51.12" y2="14.93"/><linearGradient xlink:href="#C" id="h" x1="1502.57" x2="1492.18" y1="38.1" y2="38.1"/><linearGradient xlink:href="#C" id="i" x1="1500.59" x2="1483.35" y1="49.54" y2="49.54"/><linearGradient xlink:href="#D" id="j" x1="1499.52" x2="1499.52" y1="77.15" y2="36.01"/><linearGradient xlink:href="#F" id="k" x1="1494.39" x2="1508.97" y1="65.16" y2="16.47"/><linearGradient xlink:href="#N" id="l" x1="1533.76" x2="1480.69"/><linearGradient xlink:href="#H" id="m" x1="1533.76" x2="1480.69" y1="83.02" y2="83.02"/><linearGradient xlink:href="#H" id="n" x1="1520.73" x2="1480.69" y1="90.81" y2="90.81"/><linearGradient xlink:href="#C" id="o" x1="1504.26" x2="1504.26" y1="96.39" y2="65.66"/><linearGradient xlink:href="#C" id="p" x1="1527.18" x2="1527.18" y1="83.27" y2="52.91"/><linearGradient xlink:href="#C" id="q" x1="1494.83" x2="1494.83" y1="99.43" y2="76.37"/><linearGradient xlink:href="#T" id="r" x1="1536.27" x2="1484.62"/><linearGradient xlink:href="#U" id="s" x1="1513.51" x2="1456.67"/><linearGradient xlink:href="#V" id="t" x1="1513.51" x2="1478.21"/><linearGradient xlink:href="#W" id="u" x1="1513.51" x2="1465.75"/><linearGradient xlink:href="#H" id="v" x1="1483.61" x2="1456.67" y1="124.15" y2="124.15"/><linearGradient xlink:href="#T" id="w" x1="1513.51" x2="1461.72" y1="126.89" y2="126.89"/><linearGradient id="x" x1="766.88" x2="766.88" y1="147.59" y2="0" xlink:href="#AP"><stop offset="0" stop-color="#4d2f00"/><stop offset="1" stop-color="#f0a324"/></linearGradient><linearGradient id="y" x1="766.88" x2="766.88" y1="73.79" y2="0" xlink:href="#AP"><stop offset="0" stop-color="#ffc640"/><stop offset="1" stop-color="#fffae3"/></linearGradient><linearGradient id="z" x1="766.88" x2="766.88" y1="147.59" y2="73.79" xlink:href="#AP"><stop offset="0" stop-color="#6e4500"/><stop offset="1" stop-color="#cf9353"/></linearGradient><linearGradient xlink:href="#A" id="AA" x1="84.16" x2="84.16" y1="73.79" y2="6.51"/><linearGradient id="AB" x1="41.5" x2="126.81" y1="107.43" y2="107.43" xlink:href="#AP"><stop offset="0" stop-color="#cf9353"/><stop offset="1" stop-color="#6e4500"/></linearGradient><linearGradient xlink:href="#AB" id="AC" x1="77.05" x2="77.05" y1="73.79" y2="6.51"/><linearGradient id="AD" x1="77.05" x2="77.05" y1="141.07" y2="73.79" xlink:href="#AP"><stop offset="0" stop-color="#ffbe45"/><stop offset="1" stop-color="#fff0ab"/></linearGradient><linearGradient xlink:href="#A" id="AE" x1="1449.6" x2="1449.6" y1="73.79" y2="6.51"/><linearGradient xlink:href="#z" id="AF" x1="1449.6" x2="1449.6" y1="141.07"/><linearGradient xlink:href="#AB" id="AG" x1="1456.71" x2="1456.71" y1="73.79" y2="6.51"/><linearGradient xlink:href="#AD" id="AH" x1="1456.71" x2="1456.71"/><linearGradient id="AI" x1="81.77" x2="81.77" y1="73.79" y2="31.93" xlink:href="#AP"><stop offset="0" stop-color="#cf7b23"/><stop offset="1" stop-color="#7a4000"/></linearGradient><linearGradient id="AJ" x1="81.77" x2="81.77" y1="115.65" y2="73.79" xlink:href="#AP"><stop offset="0" stop-color="#ffe56b"/><stop offset="1" stop-color="#f5ad24"/></linearGradient><linearGradient xlink:href="#AI" id="AK" x1="1451.99" x2="1451.99"/><linearGradient xlink:href="#AJ" id="AL" x1="1451.99" x2="1451.99"/><linearGradient id="AM" x1="766.88" x2="766.88" y1="34.94" y2="6.51" xlink:href="#AP"><stop offset="0" stop-color="#ffb566"/><stop offset="1" stop-color="#6e4500"/></linearGradient><linearGradient id="AN" x1="766.88" x2="766.88" y1="141.07" y2="112.65" xlink:href="#AP"><stop offset="0" stop-color="#fff0ab"/><stop offset="1" stop-color="#ffbe45"/></linearGradient><linearGradient id="AO" x1="766.88" x2="766.88" y1="6.51" y2="4.22" xlink:href="#AP"><stop offset="0" stop-color="#e8e7b3"/><stop offset="1" stop-color="#473626"/></linearGradient><linearGradient id="AP" gradientUnits="userSpaceOnUse"/></defs><rect width="1422.74" height="145.15" x="52.13" y="2.44" fill="url(#A)" rx="72.57"/><g fill-rule="evenodd"><path fill="url(#B)" d="M43.97 49.68c.85-.65 1.84-1.1 2.93-1.46l1.03-.33.94-1.65c4.1-7.15 8.93-14.11 14.51-20.33a76.1 76.1 0 0 1-.05-1.58c-.12-3.82.14-9.63 1.9-13.13-3.01 1.53-7.6 1.03-11.49 3.24-4.2 2.38-12.01 9.26-13.27 13.99-1.63 6.08 2.79 12.88 3.7 15.87.17.56.17 4.1-.19 5.38z"/><path fill="url(#C)" d="M43.92 22.79c.14 2.71 1.17 5.97 3.62 8.98-.99-2.4-1.64-5.22-.24-7.76.21 2.92 1.77 5.04 3.84 7.86-.07 2.58.15 4.58-.5 7.06-4.66-4-7.8-6.18-9.43-12.32.65-1.23 1.59-2.53 2.7-3.82Z" style="mix-blend-mode:screen"/><path fill="url(#D)" d="M51.07 38.64c.54-3.27.16-6.64.53-9.94 1.01-9.09 8.57-14.2 13.63-17.5-1.77 3.51-2.02 9.31-1.9 13.13l.05 1.58c-5.58 6.22-10.41 13.18-14.51 20.33l-.94 1.65-1.03.33c-1.09.36-2.08.81-2.93 1.46 3.49-3.36 6.29-6.11 7.1-11.04z" opacity=".5" style="mix-blend-mode:multiply"/><path d="M44.13 39.33c2.06 1.94 4.72 2.68 7.35 2.54l-2.61 4.37-.94 1.65-1.03.33c-1.09.36-2.08.81-2.93 1.46.36-1.28.36-4.81.19-5.38-.77-2.53-4.04-7.76-4.06-12.99.41 3.01 1.29 5.45 4.02 8.02z" fill="#6f963f"/><path fill="url(#E)" d="M63.31 21.87c-.24-2.03-.39-4.7-1.39-6.34-1.56-2.55-5.88-1.37-8.03-.41-2.44 1.09-4.5 2.64-6.6 4.2 2.28-2.09 4.68-3.89 6.44-4.89 3.89-2.21 8.48-1.71 11.49-3.24-1.42 2.82-1.86 7.11-1.92 10.68Z" style="mix-blend-mode:screen"/><path fill="url(#F)" d="M65.23 11.2C57 16.24 52.31 21.42 51.04 28.6c-1.91-4.46-2.12-6.53-.51-11.57l-.82 1.8c-1.34 3.76-.45 6.87.93 10.32.15.36.15.96.08 2.19-.18 3.22-.15 5.35-.21 6.97-4.41-3.11-6.77-5.43-9.04-10.6 1.55 4.99 4.29 7.76 8.2 10.69a1.78 1.78 0 0 1 .71 1.69c-.01.1-.03.2-.04.3-.42 2.5-1.92 4.66-6.37 9.29 3.55-2.71 5.72-5.21 6.77-7.46a1.44 1.44 0 0 1 1.04-.83l.4-.63c-.3.04-.62.08-.94.11.48-1.74.35-3.62.28-5.9 5.2-1.51 7.86-4.55 10.09-9.44.71-1.57.92-2.3 1.27-3.96-.48 1.42-.85 2.48-1.52 3.84-2.3 4.64-4.84 7.56-9.85 8.96-.05-2.04-.02-4.4.54-7.25 1.55-7.9 8.06-12.3 13.18-15.92z"/><path fill="url(#G)" d="M30.17 75.01c-3.5-1.96-6.7-4.98-8.46-8.68-3.4-7.14-5.21-13.59-5.05-19.92 1.43 1.98 2.93 3.43 5.21 5.06-1.9-2.08-3.9-5.4-5-7.92.02-.2.05-.4.08-.6 1.18-8.37 7.16-21.57 8.08-28 4.07 5.07 9.63 9.64 14.83 14.59l2.32 2.26c-.27 1.21-.68 2.53-.93 3.64-.28 1.24.57 1.16 1.39.5.66-.54 1.23-1.31 1.61-2.01 2.5 2.64 4.91 5.46 6.97 8.4l-2.33 3.92c-4.8 8.37-9.17 17.77-11.76 27.08l-.13.48.13.47.86 2.89c-2.87-.39-5.68-.96-7.8-2.15z"/><path fill="url(#H)" d="M36.04 58.57C29.5 44.11 27.69 30.4 25.02 14.93c-.92 6.43-6.9 19.63-8.08 28-.03.2-.05.4-.08.6 1.1 2.52 3.1 5.84 5 7.92-2.28-1.62-3.78-3.08-5.21-5.06-.16 6.33 1.65 12.78 5.05 19.92 1.77 3.71 4.96 6.72 8.46 8.68 2.12 1.18 4.93 1.75 7.8 2.15l-.86-2.89-.13-.47.13-.48c.72-2.58 1.57-5.16 2.53-7.73a81.577 81.577 0 0 1-3.61-7.01z" opacity=".5" style="mix-blend-mode:multiply"/><path fill="url(#I)" d="M22.14 28.78c1.55-3.67 3.52-6.97 5.54-7.1 2.71-.17 7.62 3.82 11.13 6.86-4.89-4.58-9.99-8.87-13.78-13.61-.92 6.43-6.9 19.63-8.08 28-.03.2-.05.4-.08.6.17.4.37.81.58 1.24.83-5.48 2.53-10.88 4.69-16Zm-5.48 17.63c-.04 1.56.04 3.13.24 4.71.03-1.35.11-2.71.26-4.06-.17-.21-.33-.43-.49-.66Z" style="mix-blend-mode:screen"/><path fill="url(#J)" d="M32.39 49.52c4.83-5.97 7.67-11.03 9.19-18.31l-1.73-1.68-3.05-2.84c.81 7.47-3.34 16.32-5.6 18.98a69.14 69.14 0 0 0 1.19 3.86z" style="mix-blend-mode:screen"/><path fill="url(#K)" d="M46.6 36.51c-3.31 6.33-9.2 12.16-13.43 15.18 1.41 3.72 3.12 7.31 4.98 10.89 1.64-1.04 3.12-2.48 4.46-4.15 1.9-4.21 4.04-8.31 6.26-12.19l.16-.28c.56-1.65 1.02-3.26 1.39-4.74a67.621 67.621 0 0 0-3.81-4.71Z" style="mix-blend-mode:screen"/><path fill="url(#L)" d="M38.75 68.06c-7.42 1.82-16.44-2.03-21.46-14.43.79 4.06 2.29 8.24 4.41 12.69 1.77 3.71 4.96 6.72 8.46 8.68 2.12 1.18 4.93 1.75 7.8 2.15l-.86-2.89-.13-.47.13-.48c.49-1.75 1.04-3.51 1.64-5.26zM51.2 42.32c-1.52-2.17-3.23-4.28-5.04-6.3 1.86 3.18 3.12 5.41 3.84 8.27l1.19-1.96z" style="mix-blend-mode:multiply"/><path fill="url(#M)" d="M25.02 14.93c1.82 10.42 3.55 20 6.54 29.62 3.35-5.83 4.89-9.08 5.34-16.19.53 7.13-1.78 11.51-4.91 17.55 1.7 5.27 3.81 10.56 6.53 16.01 1.55-.86 3.08-2.45 4.51-4.4-.58 1.25-1.14 2.51-1.67 3.78-.73.74-1.48 1.35-2.24 1.79l.87 1.61-.58 1.53-1.67-2.92c-1.04-1.86-1.98-3.7-2.82-5.55-.26-.56-.74-.93-1.36-1.06-6.23-1.2-12.14-4.19-15.78-8.83 4.69 4.22 9.8 6.8 16.19 7.71-1.91-4.5-3.32-8.99-4.43-13.55-.2-.84-.59-1.5-1.22-2.1-3.02-2.84-5.07-5.04-6.73-9.04 2.75 3.96 3.86 5.35 7.32 8.37-1.68-7.74-2.64-15.71-3.87-24.33zm24.01 31.02c.45-1.22.81-2.35 1.06-3.29-.04.59-.15 1.26-.3 1.99-.26.43-.51.87-.76 1.3zM38.62 68.43c-6.14.28-12.31-.95-17.07-4.49 5.05 2.82 10.91 4.1 17.38 3.6l-.31.88z"/><path fill="url(#N)" d="M53.07 108.2c-4.44.3-12.62 4.9-16.72 4.94-10.74.08-19.94-6.84-26.56-14.8 2.57 1.13 5.21.99 7.94.54-3.36-.6-8.77-2.86-11.44-5.58C2.38 86.44-.09 77.29 0 70.07c.08-5.86.92-11.8.39-17.16 2.51 4.04 5.09 6.4 8.51 8.12 2.06 2.06 3.03 3.61 4.83 6.39.21-1.95.06-3.18-.27-4.56 3.74 1.22 8.38 2.26 14.46 3.84 3.45.9 6.99 1.57 10.4 2.6-.44 1.34-.85 2.68-1.23 4.02l-.13.48.13.47c2.72 9.78 7.41 19.72 12.56 28.45 1.08 1.84 2.22 3.67 3.4 5.48Z"/><path fill="url(#O)" d="M9.79 98.34c6.62 7.96 15.83 14.88 26.56 14.8 4.1-.03 12.28-4.64 16.72-4.94-.51-.77-1-1.55-1.49-2.33-8.62-8.05-21.63-8.72-33.96-20.76C8.35 76.06 2.04 64.05.39 52.91.93 58.27.08 64.21 0 70.07c-.09 7.22 2.38 16.37 6.28 23.22 2.68 2.72 8.08 4.98 11.44 5.58-2.73.45-5.37.59-7.94-.54Z" opacity=".5" style="mix-blend-mode:multiply"/><path fill="url(#P)" d="M42.21 102.05c-8.45 6.69-21.51 4.45-29.18-.13 6.25 6.34 14.24 11.28 23.32 11.21 4.1-.03 12.28-4.64 16.72-4.94a130.73 130.73 0 0 1-3.4-5.48c-1.03-1.76-2.05-3.56-3.03-5.4-1.11 1.67-2.58 3.26-4.42 4.73Zm-3.88-32.76c-.98-.3-1.96-.56-2.95-.81.96.41 1.88.89 2.76 1.41.06-.2.13-.4.19-.59Z" opacity=".5" style="mix-blend-mode:multiply"/><path fill="url(#Q)" d="M34.51 79.67c-.77-3.8-3.72-9.32-7.53-13.23l-3.09-.78c2.66 2.85 3.97 5.74 5.35 9.7 2.53 7.28 1.39 11.46.34 18.92 1.44.77 2.83 1.46 4.21 2.11 1.49-6.1 1.73-11.8.72-16.72z" style="mix-blend-mode:screen"/><path fill="url(#R)" d="M8.94 83.27c-2.56-3.73-5.91-9.38-7.07-13.7-.54-2.03-1.36-7.03.45-8.73.57-.53 1.4-.74 2.57-.42 3.07.83 6.11 3.98 8.27 6.12-1.46-2.24-2.43-3.68-4.26-5.51-3.43-1.72-6.01-4.08-8.51-8.12.54 5.36-.31 11.3-.39 17.16v.48c1.46 5.19 4.18 7.86 8.94 12.72Z" style="mix-blend-mode:screen"/><path fill="url(#S)" d="M35.63 97.23l5.16 2.2c.37-1.63 1.41-6.78 1.43-11.1-1.06-2.38-2.04-4.8-2.92-7.23l-.12-.15c-1.11-1.48-1.69-3.18-3.03-4.59 1.95 6.96 1.51 12.96-.53 20.87z" style="mix-blend-mode:screen"/><path fill="url(#T)" d="M.39 52.91c1.83 10.24 6.96 20.95 15.9 30.22 1.31-7.91-1.5-14.88-6.21-20.92 5.33 6.27 8.49 13.46 7.09 21.82 2.41 2.41 5.09 4.72 8.05 6.9 1.31.97 2.68 1.84 4.11 2.66 1.76-12.32.15-19.09-4.81-27.41 3.79 4.47 5.76 9.51 6.61 14.19.57 3.17-.53 8.23-.83 13.76 3.51 1.91 7.37 3.53 11.64 5.31.25.1.49.21.74.32.52-2.74.98-5.28 1.29-7.69l.54 1.11c-.32 2.33-.66 4.73-.87 7.04a35.68 35.68 0 0 1 7.72 5.29l.74 1.17c-2.08-1.78-3.97-2.98-6.06-4.08-5.31 1-9.22 3.52-13.62 4.26-5.07.86-10.41-.06-16.43-3.39 12.72 5.05 17.38 1.79 29.04-1.39-1.14-.57-2.35-1.12-3.7-1.74-1.96-.9-3.97-1.72-5.98-2.56-3.01-1.26-3.51-1.2-4.89-1.21-4.73-.04-9.03-.07-13.01-.92-2.56-.55-7.96-3.9-12.68-7.52 9.44 6.22 14.59 7.54 25.54 7.43-1.96-.94-3.9-2-5.79-3.27C13.02 84.57 1.63 67.46.39 52.91zm37.57 17.54l-.2-.23.21.19v.03h-.01z"/><path fill="url(#U)" d="M51.82 106.26l-5.67 2.32c-7.05 3.21-17.8 11.8-25.89 8.84 5.53 4.58 6.91 8.62 11.46 12.22 2.03 1.6 4.67 3.39 7.63 5.09 2.28 1.31 4.63 1.77 7.23 1.39 1.05-.15 2.15-.4 3.37-.72-.49.38-2.18 1.09-2.66 1.33-.34.18-.41.68-.71.9-.24.18-.51.31-.8.41 6.2 2.81 12.79 4.67 17.7 3.76 5.95-1.11 10.18-3.88 13.62-7.74l-.66-.48c-9.88-7.21-18.06-16.96-24.61-27.33z"/><path fill="url(#V)" d="M30.22 128.35c3.95.59 7.43.55 12.82-.06-5.97-.7-11.3-1.94-16.17-3.73-1.76-2.22-3.55-4.6-6.62-7.14 11.59 5.04 22.8 8.19 35.3 9.99-6.69 5.46-10.39 6.65-18.22 6.12-1.18-.73-2.29-1.46-3.31-2.18 1.12-.11 2.2-.35 3.26-.67-2.02-.15-3.46-.39-5.2-.76-.13-.1-.25-.19-.37-.29-.54-.43-1.03-.86-1.5-1.29Z" style="mix-blend-mode:screen"/><path fill="url(#W)" d="M58.49 127.47c-11.49-.02-33.59-7.69-38.23-10.05 8.1 2.97 18.85-5.63 25.89-8.84 1.95-.89 3.84-1.68 5.67-2.32 4.59 7.27 9.98 14.23 16.19 20.22-3.17.58-6.32.99-9.52.98Z" opacity=".85" style="mix-blend-mode:screen"/><path fill="url(#X)" d="M52.13 106.75l-1.98.13 1.67-.62.31.49zm24.96 27.32c-3.43 3.86-7.67 6.63-13.62 7.74-3.28.61-7.31-.02-11.47-1.34 4.31.46 7.53.3 11.82-1.3 4.39-1.63 7.61-4.58 9.28-8.15a68.37 68.37 0 0 0 3.32 2.57l.66.48z" style="mix-blend-mode:multiply"/><path fill="url(#Y)" d="M20.26 117.42c6.36 3.93 24.82 9.37 34.15 10.46-6.22 4.69-7.75 5.28-16.03 5.76 7.48.5 10.58-.67 15.95-4.4 2.49-1.72 1.07-1.11 4.13-1.16 2.83-.04 5.92-.41 9.07-.95-5.62 7.14-10.68 9.84-18.61 11.64 7.78-.74 13.01-4.52 18.48-9.87.68-.67 1.06-1.18 1.51-1.58L67.53 126c-.76.11-1.24.02-1.88-.84-3.84-5.08-8.1-8.32-14.34-10.18 7.19 2.72 9.98 5.62 13.82 11.4-4.37.58-8.89.37-13.25-.18-5.51-5.64-8.91-9.73-17.18-10.76 8.65 2.49 10.13 4.45 15.83 10.57-11.01-1.59-22.5-5.55-30.27-8.62zm51.19 12.2c-2.63 2.89-6.37 6.34-10.17 8.38 4.44-2.12 7.72-4.71 10.77-7.87l-.6-.51z"/><path fill="url(#Z)" d="M1489.79 49.68c-.85-.65-1.84-1.1-2.93-1.46l-1.03-.33-.94-1.65c-4.1-7.15-8.93-14.11-14.51-20.33l.05-1.58c.12-3.82-.14-9.63-1.9-13.13 3.01 1.53 7.6 1.03 11.49 3.24 4.2 2.38 12.01 9.26 13.27 13.99 1.63 6.08-2.79 12.88-3.7 15.87-.17.56-.17 4.1.19 5.38z"/><path fill="url(#a)" d="M1489.84 22.79c-.14 2.71-1.17 5.97-3.62 8.98.99-2.4 1.64-5.22.24-7.76-.21 2.92-1.77 5.04-3.84 7.86.07 2.58-.15 4.58.5 7.06 4.66-4 7.8-6.18 9.43-12.32-.65-1.23-1.59-2.53-2.7-3.82Z" style="mix-blend-mode:screen"/><path fill="url(#b)" d="M1482.69 38.64c-.54-3.27-.16-6.64-.53-9.94-1.01-9.09-8.57-14.2-13.63-17.5 1.77 3.51 2.02 9.31 1.9 13.13l-.05 1.58c5.58 6.22 10.41 13.18 14.51 20.33l.94 1.65 1.03.33c1.09.36 2.08.81 2.93 1.46-3.49-3.36-6.29-6.11-7.1-11.04z" opacity=".5" style="mix-blend-mode:multiply"/><path d="M1489.63 39.33c-2.06 1.94-4.72 2.68-7.35 2.54l2.61 4.37.94 1.65 1.03.33c1.09.36 2.08.81 2.93 1.46-.36-1.28-.36-4.81-.19-5.38.77-2.53 4.04-7.76 4.06-12.99-.41 3.01-1.29 5.45-4.02 8.02z" fill="#6f963f"/><path fill="url(#c)" d="M1470.45 21.87c.24-2.03.39-4.7 1.39-6.34 1.56-2.55 5.88-1.37 8.03-.41 2.44 1.09 4.5 2.64 6.6 4.2-2.28-2.09-4.68-3.89-6.44-4.89-3.89-2.21-8.48-1.71-11.49-3.24 1.42 2.82 1.86 7.11 1.92 10.68Z" style="mix-blend-mode:screen"/><path fill="url(#d)" d="M1468.53 11.2c8.23 5.04 12.92 10.22 14.19 17.4 1.91-4.46 2.12-6.53.51-11.57l.82 1.8c1.34 3.76.45 6.87-.93 10.32-.15.36-.15.96-.08 2.19.18 3.22.15 5.35.21 6.97 4.41-3.11 6.77-5.43 9.04-10.6-1.55 4.99-4.29 7.76-8.2 10.69a1.78 1.78 0 0 0-.71 1.69c.01.1.03.2.04.3.42 2.5 1.92 4.66 6.37 9.29-3.55-2.71-5.72-5.21-6.77-7.46a1.44 1.44 0 0 0-1.04-.83l-.4-.63c.3.04.62.08.94.11-.48-1.74-.35-3.62-.28-5.9-5.2-1.51-7.86-4.55-10.09-9.44-.71-1.57-.92-2.3-1.27-3.96.48 1.42.85 2.48 1.52 3.84 2.3 4.64 4.84 7.56 9.85 8.96.05-2.04.02-4.4-.54-7.25-1.55-7.9-8.06-12.3-13.18-15.92z"/><path fill="url(#e)" d="M1503.59 75.01c3.5-1.96 6.7-4.98 8.46-8.68 3.4-7.14 5.21-13.59 5.05-19.92-1.43 1.98-2.93 3.43-5.21 5.06 1.9-2.08 3.9-5.4 5-7.92-.02-.2-.05-.4-.08-.6-1.18-8.37-7.16-21.57-8.08-28-4.07 5.07-9.63 9.64-14.83 14.59l-2.32 2.26c.27 1.21.68 2.53.93 3.64.28 1.24-.57 1.16-1.39.5-.66-.54-1.23-1.31-1.61-2.01-2.5 2.64-4.91 5.46-6.97 8.4a144.15 144.15 0 0 1 2.33 3.92c4.8 8.37 9.17 17.77 11.76 27.08l.13.48-.13.47c-.27.96-.55 1.92-.86 2.89 2.87-.39 5.68-.96 7.8-2.15z"/><path fill="url(#f)" d="M1497.72 58.57c6.54-14.46 8.35-28.17 11.02-43.64.92 6.43 6.9 19.63 8.08 28 .03.2.05.4.08.6-1.1 2.52-3.1 5.84-5 7.92 2.28-1.62 3.78-3.08 5.21-5.06.16 6.33-1.65 12.78-5.05 19.92-1.77 3.71-4.96 6.72-8.46 8.68-2.12 1.18-4.93 1.75-7.8 2.15l.86-2.89.13-.47-.13-.48c-.72-2.58-1.57-5.16-2.53-7.73 1.25-2.17 2.45-4.46 3.61-7.01z" opacity=".5" style="mix-blend-mode:multiply"/><path fill="url(#g)" d="M1511.62 28.78c-1.55-3.67-3.52-6.97-5.54-7.1-2.71-.17-7.62 3.82-11.13 6.86 4.89-4.58 9.99-8.87 13.78-13.61.92 6.43 6.9 19.63 8.08 28 .03.2.05.4.08.6-.17.4-.37.81-.58 1.24-.83-5.48-2.53-10.88-4.69-16Zm5.48 17.63c.04 1.56-.04 3.13-.24 4.71-.03-1.35-.11-2.71-.26-4.06.17-.21.33-.43.49-.66Z" style="mix-blend-mode:screen"/><path fill="url(#h)" d="M1501.37 49.52c-4.83-5.97-7.67-11.03-9.19-18.31l1.73-1.68 3.05-2.84c-.81 7.47 3.34 16.32 5.6 18.98a69.14 69.14 0 0 1-1.19 3.86z" style="mix-blend-mode:screen"/><path fill="url(#i)" d="M1487.16 36.51c3.31 6.33 9.2 12.16 13.43 15.18-1.41 3.72-3.12 7.31-4.98 10.89-1.64-1.04-3.12-2.48-4.46-4.15-1.9-4.21-4.04-8.31-6.26-12.19l-.16-.28c-.56-1.65-1.02-3.26-1.39-4.74 1.18-1.61 2.47-3.19 3.81-4.71Z" style="mix-blend-mode:screen"/><path fill="url(#j)" d="M1495.01 68.06c7.42 1.82 16.44-2.03 21.46-14.43-.79 4.06-2.29 8.24-4.41 12.69-1.77 3.71-4.96 6.72-8.46 8.68-2.12 1.18-4.93 1.75-7.8 2.15l.86-2.89.13-.47-.13-.48c-.49-1.75-1.04-3.51-1.64-5.26zm-12.45-25.74c1.52-2.17 3.23-4.28 5.04-6.3-1.86 3.18-3.12 5.41-3.84 8.27l-1.19-1.96z" style="mix-blend-mode:multiply"/><path fill="url(#k)" d="M1508.74 14.93c-1.82 10.42-3.55 20-6.54 29.62-3.35-5.83-4.89-9.08-5.34-16.19-.53 7.13 1.78 11.51 4.91 17.55-1.7 5.27-3.81 10.56-6.53 16.01-1.55-.86-3.08-2.45-4.51-4.4.58 1.25 1.14 2.51 1.67 3.78.73.74 1.48 1.35 2.24 1.79l-.87 1.61.58 1.53 1.67-2.92c1.04-1.86 1.98-3.7 2.82-5.55.26-.56.74-.93 1.36-1.06 6.23-1.2 12.14-4.19 15.78-8.83-4.69 4.22-9.8 6.8-16.19 7.71 1.91-4.5 3.32-8.99 4.43-13.55.2-.84.59-1.5 1.22-2.1 3.02-2.84 5.07-5.04 6.73-9.04-2.75 3.96-3.87 5.35-7.32 8.37 1.68-7.74 2.64-15.71 3.87-24.33zm-24.01 31.02c-.45-1.22-.81-2.35-1.06-3.29.04.59.15 1.26.3 1.99.26.43.51.87.76 1.3zm10.41 22.48c6.14.28 12.31-.95 17.07-4.49-5.05 2.82-10.91 4.1-17.38 3.6l.31.88z"/><path fill="url(#l)" d="M1480.69 108.2c4.44.3 12.62 4.9 16.72 4.94 10.74.08 19.94-6.84 26.56-14.8-2.57 1.13-5.21.99-7.94.54 3.36-.6 8.77-2.86 11.44-5.58 3.9-6.85 6.37-16 6.28-23.22-.08-5.86-.92-11.8-.39-17.16-2.51 4.04-5.09 6.4-8.51 8.12-2.06 2.06-3.03 3.61-4.83 6.39-.21-1.95-.06-3.18.27-4.56-3.74 1.22-8.38 2.26-14.46 3.84-3.45.9-6.99 1.57-10.4 2.6.44 1.34.85 2.68 1.23 4.02l.13.48-.13.47c-2.72 9.78-7.41 19.72-12.56 28.45-1.08 1.84-2.22 3.67-3.4 5.48Z"/><path fill="url(#m)" d="M1523.97 98.34c-6.62 7.96-15.83 14.88-26.56 14.8-4.1-.03-12.28-4.64-16.72-4.94.51-.77 1-1.55 1.49-2.33 8.62-8.05 21.63-8.72 33.96-20.76 9.27-9.05 15.58-21.06 17.23-32.2-.54 5.35.31 11.3.39 17.16.09 7.22-2.38 16.37-6.28 23.22-2.68 2.72-8.08 4.98-11.44 5.58 2.73.45 5.37.59 7.94-.54Z" opacity=".5" style="mix-blend-mode:multiply"/><path fill="url(#n)" d="M1491.55 102.05c8.45 6.69 21.51 4.45 29.18-.13-6.25 6.34-14.24 11.28-23.32 11.21-4.1-.03-12.28-4.64-16.72-4.94 1.18-1.81 2.32-3.63 3.4-5.48 1.03-1.76 2.05-3.56 3.03-5.4 1.11 1.67 2.58 3.26 4.42 4.73Zm3.88-32.76c.98-.3 1.96-.56 2.95-.81-.96.41-1.88.89-2.76 1.41-.06-.2-.13-.4-.19-.59Z" opacity=".5" style="mix-blend-mode:multiply"/><path fill="url(#o)" d="M1499.25 79.67c.77-3.8 3.72-9.32 7.53-13.23l3.09-.78c-2.66 2.85-3.97 5.74-5.35 9.7-2.53 7.28-1.39 11.46-.34 18.92-1.44.77-2.83 1.46-4.21 2.11-1.49-6.1-1.73-11.8-.72-16.72z" style="mix-blend-mode:screen"/><path fill="url(#p)" d="M1524.82 83.27c2.56-3.73 5.91-9.38 7.07-13.7.54-2.03 1.36-7.03-.45-8.73-.57-.53-1.4-.74-2.57-.42-3.07.83-6.11 3.98-8.27 6.12 1.46-2.24 2.43-3.68 4.26-5.51 3.43-1.72 6.01-4.08 8.51-8.12-.54 5.35.31 11.3.39 17.16v.48c-1.46 5.19-4.18 7.86-8.94 12.72Z" style="mix-blend-mode:screen"/><path fill="url(#q)" d="M1498.13 97.23a166.4 166.4 0 0 0-5.16 2.2c-.37-1.63-1.41-6.78-1.43-11.1 1.06-2.38 2.04-4.8 2.92-7.23l.12-.15c1.11-1.48 1.69-3.18 3.03-4.59-1.95 6.96-1.51 12.96.53 20.87Z" style="mix-blend-mode:screen"/><path fill="url(#r)" d="M1533.37 52.91c-1.83 10.24-6.96 20.95-15.9 30.22-1.31-7.91 1.5-14.88 6.21-20.92-5.33 6.27-8.49 13.46-7.09 21.82a70.434 70.434 0 0 1-8.05 6.9c-1.31.97-2.68 1.84-4.11 2.66-1.76-12.32-.15-19.09 4.81-27.41-3.79 4.47-5.76 9.51-6.61 14.19-.57 3.17.53 8.23.83 13.76-3.51 1.91-7.37 3.53-11.64 5.31-.25.1-.49.21-.74.32-.52-2.74-.98-5.28-1.29-7.69l-.54 1.11c.32 2.33.66 4.73.87 7.04a35.68 35.68 0 0 0-7.72 5.29l-.74 1.17c2.08-1.78 3.97-2.98 6.06-4.08 5.31 1 9.22 3.52 13.62 4.26 5.07.86 10.41-.06 16.43-3.39-12.72 5.05-17.38 1.79-29.04-1.39 1.14-.57 2.35-1.12 3.7-1.74 1.96-.9 3.97-1.72 5.98-2.56 3.01-1.26 3.51-1.2 4.89-1.21 4.73-.04 9.03-.07 13.01-.92 2.56-.55 7.96-3.9 12.68-7.52-9.44 6.22-14.59 7.54-25.54 7.43 1.96-.94 3.9-2 5.79-3.27 11.48-7.72 22.88-24.83 24.11-39.37zm-37.57 17.54l.2-.23-.21.19v.03h.01z"/><path fill="url(#s)" d="M1481.94 106.26l5.67 2.32c7.05 3.21 17.8 11.8 25.89 8.84-5.53 4.58-6.91 8.62-11.46 12.22-2.03 1.6-4.67 3.39-7.63 5.09-2.28 1.31-4.63 1.77-7.23 1.39-1.05-.15-2.15-.4-3.37-.72.49.38 2.18 1.09 2.66 1.33.34.18.41.68.71.9.24.18.51.31.8.41-6.2 2.81-12.79 4.67-17.7 3.76-5.95-1.11-10.18-3.88-13.62-7.74l.66-.48c9.88-7.21 18.06-16.96 24.61-27.33z"/><path fill="url(#t)" d="M1503.54 128.35c-3.95.59-7.43.55-12.82-.06 5.97-.7 11.3-1.94 16.17-3.73 1.76-2.22 3.55-4.6 6.62-7.14-11.59 5.04-22.8 8.19-35.3 9.99 6.69 5.46 10.39 6.65 18.22 6.12 1.18-.73 2.29-1.46 3.31-2.18-1.12-.11-2.2-.35-3.26-.67 2.02-.15 3.46-.39 5.2-.76.13-.1.25-.19.37-.29.54-.43 1.03-.86 1.5-1.29Z" style="mix-blend-mode:screen"/><path fill="url(#u)" d="M1475.27 127.47c11.49-.02 33.59-7.69 38.23-10.05-8.1 2.97-18.85-5.63-25.89-8.84-1.95-.89-3.84-1.68-5.67-2.32-4.59 7.27-9.98 14.23-16.19 20.22 3.17.58 6.32.99 9.52.98Z" opacity=".85" style="mix-blend-mode:screen"/><path fill="url(#v)" d="M1481.63 106.75l1.98.13-1.67-.62-.31.49zm-24.96 27.32c3.43 3.86 7.67 6.63 13.62 7.74 3.28.61 7.31-.02 11.47-1.34-4.31.46-7.53.3-11.82-1.3-4.39-1.63-7.61-4.58-9.28-8.15a68.37 68.37 0 0 1-3.32 2.57l-.66.48z" style="mix-blend-mode:multiply"/><path fill="url(#w)" d="M1513.5 117.42c-6.36 3.93-24.82 9.37-34.15 10.46 6.22 4.69 7.75 5.28 16.03 5.76-7.48.5-10.58-.67-15.95-4.4-2.49-1.72-1.07-1.11-4.13-1.16-2.83-.04-5.92-.41-9.07-.95 5.62 7.14 10.68 9.84 18.61 11.64-7.78-.74-13.01-4.52-18.48-9.87-.68-.67-1.06-1.18-1.51-1.58l1.38-1.32c.76.11 1.24.02 1.88-.84 3.84-5.08 8.1-8.32 14.34-10.18-7.19 2.72-9.98 5.62-13.82 11.4 4.37.58 8.89.37 13.25-.18 5.51-5.64 8.91-9.73 17.18-10.76-8.65 2.49-10.13 4.45-15.83 10.57 11.01-1.59 22.5-5.55 30.27-8.62zm-51.19 12.2c2.63 2.89 6.37 6.34 10.17 8.38-4.44-2.12-7.72-4.71-10.77-7.87l.6-.51z"/><path fill="url(#x)" d="M1422.74 147.59H111.02c-38.64 0-66.94-40.18-76.3-73.79C44.08 40.17 72.38 0 111.02 0h1311.73c38.64 0 66.94 40.18 76.3 73.79-9.36 33.62-37.66 73.79-76.3 73.79Zm9.36-35.18c11.71-.95 21.04-7.75 28.08-16.78 3.07-3.94 5.7-8.3 7.85-12.81 1.34-2.81 2.65-5.97 3.48-9.02-.83-3.05-2.15-6.22-3.48-9.02-2.15-4.51-4.78-8.87-7.85-12.81-7.04-9.03-16.37-15.83-28.08-16.78l-2.99-.24v-3c0-12.24-9.92-22.17-22.17-22.17H126.81c-12.24 0-22.17 9.92-22.17 22.17v3l-2.99.24c-11.71.95-21.04 7.75-28.08 16.78-3.07 3.94-5.7 8.3-7.85 12.81-1.33 2.81-2.65 5.97-3.48 9.02.83 3.05 2.15 6.22 3.48 9.02 2.14 4.51 4.78 8.87 7.85 12.81 7.04 9.03 16.37 15.83 28.08 16.78l2.99.24v3c0 12.24 9.92 22.17 22.17 22.17h1280.13c12.24 0 22.17-9.92 22.17-22.17v-3l2.99-.24Z"/><path fill="url(#y)" d="M41.5 73.79c9.02-30.33 34.76-67.28 69.52-67.28h1311.73c34.75 0 60.5 36.94 69.52 67.28h6.78C1489.69 40.18 1461.39 0 1422.75 0H111.02c-38.64 0-66.94 40.17-76.3 73.79h6.78Z"/><path fill="url(#z)" d="M41.5 73.79c9.02 30.34 34.76 67.28 69.52 67.28h1311.73c34.75 0 60.5-36.94 69.52-67.28h6.78c-9.36 33.61-37.66 73.79-76.3 73.79H111.02c-38.64 0-66.93-40.17-76.3-73.79h6.78Z"/><path fill="url(#AA)" d="M58.89 73.79c2.44-9.92 15.72-39.68 42.5-41.86 0-14.04 11.38-25.42 25.42-25.42h-15.8c-34.75 0-60.5 36.94-69.52 67.28h17.39Z"/><path fill="url(#AB)" d="M58.89 73.79c2.44 9.92 15.72 39.68 42.5 41.86 0 14.04 11.38 25.42 25.42 25.42h-15.8c-34.75 0-60.5-36.94-69.52-67.28h17.39Z"/><path fill="url(#AC)" d="M43.09 73.79C52.11 43.46 77.85 6.51 112.6 6.51h-1.59c-34.75 0-60.5 36.94-69.52 67.28h1.59Z"/><path fill="url(#AD)" d="M43.09 73.79c9.02 30.34 34.76 67.28 69.52 67.28h-1.59c-34.75 0-60.5-36.94-69.52-67.28h1.59Z"/><path fill="url(#AE)" d="M1474.87 73.79c-2.44-9.92-15.72-39.68-42.5-41.86 0-14.04-11.38-25.42-25.42-25.42h15.8c34.75 0 60.5 36.94 69.52 67.28h-17.39Z"/><path fill="url(#AF)" d="M1474.87 73.79c-2.44 9.92-15.72 39.68-42.5 41.86 0 14.04-11.38 25.42-25.42 25.42h15.8c34.75 0 60.5-36.94 69.52-67.28h-17.39Z"/><path fill="url(#AG)" d="M1490.67 73.79c-9.02-30.34-34.76-67.28-69.52-67.28h1.59c34.75 0 60.5 36.94 69.52 67.28h-1.59Z"/><path fill="url(#AH)" d="M1490.67 73.79c-9.02 30.34-34.76 67.28-69.52 67.28h1.59c34.75 0 60.5-36.94 69.52-67.28h-1.59Z"/><path fill="#ccc" d="M1432.37 115.65c26.78-2.18 40.06-31.93 42.5-41.86-2.44-9.92-15.72-39.68-42.5-41.86 0-14.04-11.38-25.42-25.42-25.42H126.81c-14.04 0-25.42 11.38-25.42 25.42-26.78 2.18-40.06 31.93-42.5 41.86 2.44 9.92 15.72 39.68 42.5 41.86 0 14.04 11.38 25.42 25.42 25.42h1280.13c14.04 0 25.42-11.38 25.42-25.42Zm39.14-41.86c-.83-3.05-2.15-6.22-3.48-9.02-2.15-4.51-4.78-8.87-7.85-12.81-7.04-9.03-16.37-15.83-28.08-16.78l-2.99-.24v-3c0-12.24-9.92-22.17-22.17-22.17H126.81c-12.24 0-22.17 9.92-22.17 22.17v3l-2.99.24c-11.71.95-21.04 7.75-28.08 16.78-3.07 3.94-5.7 8.3-7.85 12.81-1.33 2.81-2.65 5.97-3.48 9.02.83 3.05 2.15 6.22 3.48 9.02 2.14 4.51 4.78 8.87 7.85 12.81 7.04 9.03 16.37 15.83 28.08 16.78l2.99.24v3c0 12.24 9.92 22.17 22.17 22.17h1280.13c12.24 0 22.17-9.92 22.17-22.17v-3l2.99-.24c11.71-.95 21.04-7.75 28.08-16.78 3.07-3.94 5.7-8.3 7.85-12.81 1.34-2.81 2.65-5.97 3.48-9.02Z"/><path fill="url(#AI)" d="M62.25 73.79c.83-3.05 2.15-6.22 3.48-9.02 2.14-4.51 4.78-8.87 7.85-12.81 7.04-9.03 16.37-15.83 28.08-16.78l2.99-.24-3.26-3c-26.78 2.18-40.06 31.93-42.5 41.86h3.36Z"/><path fill="url(#AJ)" d="M65.73 82.82c-1.33-2.81-2.65-5.97-3.48-9.02h-3.36c2.44 9.92 15.72 39.68 42.5 41.86l3.26-3-2.99-.24c-11.71-.95-21.04-7.75-28.08-16.78-3.07-3.94-5.7-8.3-7.85-12.81Z"/><path fill="url(#AK)" d="M1471.51 73.79c-.83-3.05-2.15-6.22-3.48-9.02-2.15-4.51-4.78-8.87-7.85-12.81-7.04-9.03-16.37-15.83-28.08-16.78l-2.99-.24 3.26-3c26.78 2.18 40.06 31.93 42.5 41.86h-3.36Z"/><path fill="url(#AL)" d="M1468.03 82.82c1.34-2.81 2.65-5.97 3.48-9.02h3.36c-2.44 9.92-15.72 39.68-42.5 41.86l-3.26-3 2.99-.24c11.71-.95 21.04-7.75 28.08-16.78 3.07-3.94 5.7-8.3 7.85-12.81Z"/><path fill="url(#AM)" d="M104.65 31.93c0-12.24 9.92-22.17 22.17-22.17h1280.13c12.24 0 22.17 9.92 22.17 22.17v3l3.26-3c0-14.04-11.38-25.42-25.42-25.42H126.81c-14.04 0-25.42 11.38-25.42 25.42l3.26 3v-3Z"/><path fill="url(#AN)" d="M126.81 137.82c-12.24 0-22.17-9.92-22.17-22.17v-3l-3.26 3c0 14.04 11.38 25.42 25.42 25.42h1280.13c14.04 0 25.42-11.38 25.42-25.42l-3.26-3v3c0 12.24-9.92 22.17-22.17 22.17H126.81Z"/><path fill="url(#AO)" d="M326.39 4.22l1078.76 2.3H128.61c51.69-1.42 121.26-2.3 197.79-2.3z" style="mix-blend-mode:screen"/><path fill="#fff" d="M326.39 138.9l176.97 2.06H149.43c46.25-1.27 108.49-2.06 176.97-2.06z"/><path fill="#936037" d="M97.86 28.68c-12.16 1.8-18.9 5.3-25.62 13.45 3.65-10.25 11.8-15.64 21.64-17.12 1.91-6.71 5.59-10.32 12.1-12.46-4.6 3.98-6.74 7.59-8.12 16.13Zm1338.04 0c12.16 1.8 18.9 5.3 25.62 13.45-3.65-10.25-11.8-15.64-21.64-17.12-1.91-6.71-5.59-10.32-12.1-12.46 4.6 3.98 6.74 7.59 8.12 16.13Z" opacity=".35"/><path fill="#683c11" d="M97.86 118.91c-12.16-1.8-18.9-5.3-25.62-13.45 3.65 10.25 11.8 15.64 21.64 17.12 1.91 6.71 5.59 10.32 12.1 12.46-4.6-3.98-6.74-7.59-8.12-16.13Zm1338.04 0c12.16-1.8 18.9-5.3 25.62-13.45-3.65 10.25-11.8 15.64-21.64 17.12-1.91 6.71-5.59 10.32-12.1 12.46 4.6-3.98 6.74-7.59 8.12-16.13Z" opacity=".75"/></g></svg>